<?xml version="1.0" encoding="utf-8"?>
<!-- Generator: Adobe Illustrator 22.1.0, SVG Export Plug-In . SVG Version: 6.00 Build 0)  -->
<svg version="1.1" id="Layer_1" xmlns="http://www.w3.org/2000/svg" xmlns:xlink="http://www.w3.org/1999/xlink" x="0px" y="0px"
	 viewBox="0 0 670 661" style="enable-background:new 0 0 670 661;" xml:space="preserve">
<style type="text/css">
	.st0{opacity:0.1;}
	.st1{fill:#334752;}
	.st2{fill:#E6E4EB;}
	.st3{fill:#314584;}
	.st4{fill:#5767C7;}
	.st5{fill:#C7E6FF;}
	.st6{fill:#5768C8;}
	.st7{fill:#334787;}
	.st8{opacity:0.1;fill:#334752;}
	.st9{fill:#C3D0D8;}
	.st10{fill:#EDF2F6;}
	.st11{opacity:0.2;fill:#334752;}
	.st12{fill:url(#SVGID_1_);}
	.st13{fill:url(#SVGID_2_);}
	.st14{fill:url(#SVGID_3_);}
	.st15{fill:url(#SVGID_4_);}
	.st16{fill:url(#SVGID_5_);}
	.st17{fill:url(#SVGID_6_);}
	.st18{fill:url(#SVGID_7_);}
	.st19{fill:#FFE600;}
	.st20{fill:url(#SVGID_8_);}
	.st21{fill:url(#SVGID_9_);}
	.st22{fill:url(#SVGID_10_);}
	.st23{fill:#2C4755;}
	.st24{fill:url(#SVGID_11_);}
	.st25{fill:url(#SVGID_12_);}
	.st26{fill:url(#SVGID_13_);}
	.st27{fill:url(#SVGID_14_);}
	.st28{fill:url(#SVGID_15_);}
	.st29{fill:url(#SVGID_16_);}
	.st30{fill:url(#SVGID_17_);}
	.st31{fill:url(#SVGID_18_);}
	.st32{fill:url(#SVGID_19_);}
	.st33{fill:url(#SVGID_20_);}
	.st34{fill:url(#SVGID_21_);}
	.st35{fill:#6A6D89;}
	.st36{fill:url(#SVGID_22_);}
	.st37{fill:url(#SVGID_23_);}
	.st38{fill:url(#SVGID_24_);}
	.st39{fill:url(#SVGID_25_);}
	.st40{fill:url(#SVGID_26_);}
	.st41{fill:url(#SVGID_27_);}
	.st42{fill:url(#SVGID_28_);}
	.st43{fill:url(#SVGID_29_);}
	.st44{fill:#FFFFFF;}
	.st45{fill:url(#SVGID_30_);}
	.st46{fill:url(#SVGID_31_);}
	.st47{fill:url(#SVGID_32_);}
	.st48{fill:#131316;}
	.st49{fill:url(#SVGID_33_);}
	.st50{fill:url(#SVGID_34_);}
	.st51{fill:url(#SVGID_35_);}
	.st52{fill:url(#SVGID_36_);}
	.st53{fill:url(#SVGID_37_);}
	.st54{fill:url(#SVGID_38_);}
	.st55{fill:url(#SVGID_39_);}
	.st56{fill:url(#SVGID_40_);}
	.st57{fill:url(#SVGID_41_);}
	.st58{fill:url(#SVGID_42_);}
	.st59{fill:url(#SVGID_43_);}
	.st60{fill:url(#SVGID_44_);}
	.st61{fill:url(#SVGID_45_);}
	.st62{fill:url(#SVGID_46_);}
	.st63{fill:url(#SVGID_47_);}
	.st64{fill:url(#SVGID_48_);}
	.st65{fill:url(#SVGID_49_);}
	.st66{fill:#6A3C20;}
	.st67{fill:url(#SVGID_50_);}
	.st68{fill:url(#SVGID_51_);}
	.st69{fill:url(#SVGID_52_);}
	.st70{fill:url(#SVGID_53_);}
	.st71{fill:url(#SVGID_54_);}
	.st72{fill:url(#SVGID_55_);}
	.st73{fill:url(#SVGID_56_);}
	.st74{fill:url(#SVGID_57_);}
	.st75{fill:url(#SVGID_58_);}
	.st76{fill:url(#SVGID_59_);}
	.st77{fill:url(#SVGID_60_);}
	.st78{fill:url(#SVGID_61_);}
	.st79{fill:url(#SVGID_62_);}
	.st80{fill:url(#SVGID_63_);}
	.st81{fill:url(#SVGID_64_);}
	.st82{fill:url(#SVGID_65_);}
</style>
<g>
	<g class="st0">
		<g>
			<path class="st1" d="M508.2,255.8c-13.7-7.8-35.9-7.5-49.3,0.8L275,370.2c-13.4,8.3-13.2,21.5,0.5,29.3L429.9,488
				c13.7,7.8,35.9,7.5,49.3-0.8l183.9-113.6c13.4-8.3,13.2-21.5-0.5-29.3L508.2,255.8z"/>
		</g>
	</g>
	<g>
		<path class="st2" d="M457.3,95.1L294.5,1.4c-1.9-1.1-3.8-1.5-5.3-1.1c-3.7,0.5-8.3,3.4-13.7,6.2c0,0,0,0-0.1,0
			c-1.7,1-2.8,3.1-2.8,6.1v366.7c0,5.9,4.2,13.2,9.3,16.1l162.8,93.7c1.7,1,3.3,1.4,4.7,1.2c2.5-0.1,5.7-1.1,9.7-3.1
			c3.4-1.8,5.1-3.2,5.9-4.2c0-0.1,0.1-0.1,0.1-0.2c0,0,0,0,0,0c0.9-1.1,1.5-2.8,1.5-4.9V111.2C466.6,105.3,462.4,98.1,457.3,95.1z"
			/>
		<g>
			<g>
				<g>
					<path class="st3" d="M454.1,117.1c0-5.9-4.2-13.2-9.3-16.1L282,7.3c-5.1-2.9-9.3-0.5-9.3,5.4v366.7c0,5.9,4.2,13.2,9.3,16.1
						l162.8,93.7c5.1,2.9,9.3,0.5,9.3-5.4V117.1z"/>
				</g>
			</g>
		</g>
		<g>
			<g>
				<g>
					<path class="st4" d="M350.1,411.5c-2-1.1-3.6-0.2-3.6,2.1v7.5c0,2.3,1.6,5.1,3.6,6.2l19.3,11.1c2,1.1,3.6,0.2,3.6-2.1v-7.5
						c0-2.3-1.6-5.1-3.6-6.2L350.1,411.5z"/>
				</g>
			</g>
		</g>
		<g>
			<g>
				<path class="st5" d="M281.7,34c-2.1-1.2-3.9-0.2-3.9,2.2v321.4c0,2.5,1.7,5.5,3.9,6.7l162.3,93.4c2.1,1.2,3.9,0.2,3.9-2.2V134.1
					c0-2.5-1.7-5.5-3.9-6.7L281.7,34z"/>
			</g>
		</g>
		<g>
			<g>
				<g>
					<path class="st6" d="M341.3,51c-1.5-0.8-2.6-0.1-2.6,1.5v2.6c0,1.7,1.2,3.7,2.6,4.6L386.9,86c1.4,0.8,2.6,0.2,2.6-1.5v-2.6
						c0-1.7-1.2-3.7-2.6-4.6L341.3,51z"/>
				</g>
			</g>
		</g>
		<g>
			<path class="st7" d="M456.2,267.8c0,2.1,1.5,3,3.3,1.9l1.4-0.9c1.8-1.1,3.3-3.8,3.3-5.9v-15.3c0-2.1-1.5-3-3.3-1.9l-1.4,0.9
				c-1.8,1.1-3.3,3.8-3.3,5.9V267.8z"/>
		</g>
		<g>
			<g>
				<g>
					<path class="st7" d="M354.4,38.4c-1.7-1-4.5-0.9-6.2,0.1l-0.3,0.2c-1.7,1-1.7,2.7,0.1,3.7l36.6,21c1.7,1,4.5,0.9,6.2-0.1
						l0.3-0.2c1.7-1,1.7-2.7-0.1-3.7L354.4,38.4z"/>
				</g>
			</g>
		</g>
		<g>
			<path class="st7" d="M456.2,219.5c0,2.1,1.5,3,3.3,1.9l1.4-0.9c1.8-1.1,3.3-3.8,3.3-5.9v-61.3c0-2.1-1.5-3-3.3-1.9l-1.4,0.9
				c-1.8,1.1-3.3,3.8-3.3,5.9V219.5z"/>
		</g>
		<path class="st6" d="M287.5,30.1c1.9,2.9,5.1,4.2,7.1,2.9c2-1.3,2.1-4.7,0.2-7.6c-1.9-2.9-5.1-4.2-7-2.9
			C285.7,23.8,285.6,27.2,287.5,30.1z"/>
		<path class="st6" d="M299.3,36.2c0.5,0.7,1.3,1.1,1.8,0.8c0.5-0.3,0.5-1.2,0-2c-0.5-0.8-1.3-1.1-1.8-0.8
			C298.8,34.6,298.8,35.5,299.3,36.2z"/>
		<path class="st6" d="M437.7,115.7c0.7,1.1,1.9,1.6,2.7,1.1c0.8-0.5,0.8-1.8,0.1-2.9c-0.7-1.1-1.9-1.6-2.7-1.1
			C437,113.3,436.9,114.6,437.7,115.7z"/>
	</g>
	<g>
		<path class="st8" d="M161.1,387.2c0,8.9-12.4,16.1-27.8,16.1s-27.8-7.2-27.8-16.1c0-8.9,12.4-16.1,27.8-16.1
			S161.1,378.3,161.1,387.2z"/>
		<path class="st9" d="M159,358.4l-12.3-1l-8.7-0.8l-18,0.6l-11.4,0.8l-1.8,1.2l3.2,26.4c0,0,0,0,0,0c0,7.3,10.3,13.3,22.9,13.3
			c12.3,0,22.3-5.6,22.9-12.6c0,0,0,0,0,0L159,358.4z"/>
		<path class="st10" d="M159,358.9c0,7.6-11.7,13.7-26.1,13.7c-14.4,0-26.1-6.1-26.1-13.7c0-7.6,11.7-13.7,26.1-13.7
			C147.3,345.2,159,351.3,159,358.9z"/>
		<path class="st11" d="M149.9,358.9c0,4.9-7.6,8.9-17,8.9c-9.4,0-17-4-17-8.9c0-4.9,7.6-8.9,17-8.9
			C142.3,350,149.9,354,149.9,358.9z"/>
		<linearGradient id="SVGID_1_" gradientUnits="userSpaceOnUse" x1="129.5391" y1="319.806" x2="138.194" y2="361.7359">
			<stop  offset="0" style="stop-color:#AFF57A"/>
			<stop  offset="1" style="stop-color:#54D169"/>
		</linearGradient>
		<path class="st12" d="M148.1,313.7c-0.2-8.2-6.9-14.9-15.2-14.9c-8.3,0-15,6.6-15.2,14.9h0v45.1h0c0,0,0,0.1,0,0.1
			c0,4.4,6.8,8,15.2,8c8.4,0,15.2-3.6,15.2-8c0,0,0-0.1,0-0.1h0L148.1,313.7L148.1,313.7z"/>
		<linearGradient id="SVGID_2_" gradientUnits="userSpaceOnUse" x1="131.2285" y1="307.0254" x2="142.8664" y2="349.698">
			<stop  offset="0" style="stop-color:#AFF57A"/>
			<stop  offset="1" style="stop-color:#54D169"/>
		</linearGradient>
		<path class="st13" d="M132.9,298.8c-8.3,0-15,6.6-15.2,14.9h0v0.3c1.6,1,3.5,1.9,6.2,3c9.3,3.9,14.3,0,18.8,4
			c1.9,1.7,3.7,3.7,5.4,5.7v-13.1h0C147.9,305.5,141.2,298.8,132.9,298.8z"/>
		<linearGradient id="SVGID_3_" gradientUnits="userSpaceOnUse" x1="131.2381" y1="336.1685" x2="144.966" y2="375.1147">
			<stop  offset="0" style="stop-color:#AFF57A"/>
			<stop  offset="1" style="stop-color:#54D169"/>
		</linearGradient>
		<path class="st14" d="M148.1,358.9c0,0,0-0.1,0-0.1h0V322c-1,4.5-2.8,8.8-9.6,10.7c-12.1,3.4-12.8,11.5-20.6,16.7
			c-0.1,0.1-0.2,0.1-0.3,0.2v9.2h0c0,0,0,0.1,0,0.1c0,4.4,6.8,8,15.2,8C141.3,366.9,148.1,363.3,148.1,358.9z"/>
	</g>
	<g>
		<path class="st8" d="M626.1,478.5c0,8.9-12.4,16.1-27.8,16.1c-15.3,0-27.8-7.2-27.8-16.1c0-8.9,12.4-16.1,27.8-16.1
			C613.7,462.4,626.1,469.6,626.1,478.5z"/>
		<path class="st9" d="M624,449.7l-12.3-1l-8.7-0.8l-18,0.6l-11.4,0.8l-1.8,1.2l3.2,26.4c0,0,0,0,0,0c0,7.3,10.3,13.3,22.9,13.3
			c12.3,0,22.3-5.6,22.9-12.6c0,0,0,0,0,0L624,449.7z"/>
		<path class="st10" d="M624.1,450.2c0,7.6-11.7,13.7-26.1,13.7c-14.4,0-26.1-6.1-26.1-13.7c0-7.6,11.7-13.7,26.1-13.7
			C612.4,436.5,624.1,442.6,624.1,450.2z"/>
		<path class="st11" d="M615,450.2c0,4.9-7.6,8.9-17,8.9c-9.4,0-17-4-17-8.9c0-4.9,7.6-8.9,17-8.9C607.3,441.3,615,445.3,615,450.2z
			"/>
		<linearGradient id="SVGID_4_" gradientUnits="userSpaceOnUse" x1="594.6206" y1="411.1198" x2="603.2754" y2="453.0492">
			<stop  offset="0" style="stop-color:#AFF57A"/>
			<stop  offset="1" style="stop-color:#54D169"/>
		</linearGradient>
		<path class="st15" d="M613.2,405c-0.2-8.3-6.9-14.9-15.2-14.9c-8.3,0-15,6.6-15.2,14.9h0v45.1h0c0,0,0,0.1,0,0.1
			c0,4.4,6.8,8,15.2,8c8.4,0,15.2-3.6,15.2-8c0,0,0-0.1,0-0.1h0L613.2,405L613.2,405z"/>
		<linearGradient id="SVGID_5_" gradientUnits="userSpaceOnUse" x1="596.3104" y1="398.3399" x2="607.949" y2="441.0152">
			<stop  offset="0" style="stop-color:#AFF57A"/>
			<stop  offset="1" style="stop-color:#54D169"/>
		</linearGradient>
		<path class="st16" d="M597.9,390.1c-8.3,0-15,6.6-15.2,14.9h0v0.3c1.6,1.1,3.5,1.9,6.3,3c9.3,3.9,14.3,0,18.8,4
			c1.9,1.7,3.7,3.7,5.4,5.7V405h0C613,396.8,606.2,390.1,597.9,390.1z"/>
		<linearGradient id="SVGID_6_" gradientUnits="userSpaceOnUse" x1="596.3207" y1="427.4841" x2="610.0478" y2="466.4282">
			<stop  offset="0" style="stop-color:#AFF57A"/>
			<stop  offset="1" style="stop-color:#54D169"/>
		</linearGradient>
		<path class="st17" d="M613.2,450.2c0,0,0-0.1,0-0.1h0v-36.8c-1,4.5-2.8,8.8-9.6,10.7c-12.1,3.4-12.8,11.5-20.6,16.7
			c-0.1,0.1-0.2,0.1-0.3,0.2v9.2h0c0,0,0,0.1,0,0.1c0,4.4,6.8,8,15.2,8C606.4,458.2,613.2,454.6,613.2,450.2z"/>
	</g>
	<g>
		<path class="st8" d="M533.9,538.6l-33.8-19.4c-0.2-0.1-0.4-0.2-0.6-0.3l-32.7-18.7c-3-1.7-7.9-1.6-10.8,0.2l-40.3,24.9
			c-2.9,1.8-2.9,4.7,0.1,6.4l33.8,19.4c0.2,0.1,0.4,0.2,0.6,0.3l32.7,18.7c3,1.7,7.9,1.6,10.8-0.2l40.3-24.9
			C536.9,543.3,536.9,540.4,533.9,538.6z"/>
		<g>
			<path class="st2" d="M493.9,512c0-2.1-1.5-4.7-3.3-5.8l-68.8-39.6c-0.7-0.4-1.4-0.5-2-0.4c-1.8,0.4-4.3,2.2-4.3,2.2l0,0
				c-0.6,0.4-0.9,1.1-0.9,2.1v53.8c0,2.1,1.5,4.7,3.3,5.8l68.8,39.6c0.6,0.3,1.2,0.5,1.7,0.4c0.6,0,1.3-0.2,2.2-0.7
				c1.7-1,2.5-1.4,2.9-2c0.3-0.4,0.4-1,0.4-1.7V512z"/>
			<g>
				<g>
					<linearGradient id="SVGID_7_" gradientUnits="userSpaceOnUse" x1="462.7832" y1="496.2746" x2="427.6226" y2="573.6281">
						<stop  offset="0" style="stop-color:#15EDED"/>
						<stop  offset="1" style="stop-color:#029CF5"/>
					</linearGradient>
					<path class="st18" d="M490.1,514c0-2.1-1.5-4.7-3.3-5.7l-68.8-39.6c-1.8-1.1-3.3-0.2-3.3,1.9v53.8c0,2.1,1.5,4.7,3.3,5.8
						l68.8,39.6c1.8,1.1,3.3,0.2,3.3-1.9V514z"/>
				</g>
			</g>
			<path class="st19" d="M461.5,535.7c3.9,6,10.4,8.7,14.4,6c4.1-2.7,4.2-9.7,0.3-15.6c-3.9-6-10.3-8.7-14.4-6
				C457.8,522.7,457.6,529.7,461.5,535.7z"/>
			<linearGradient id="SVGID_8_" gradientUnits="userSpaceOnUse" x1="457.3264" y1="531.3125" x2="441.8236" y2="565.6744">
				<stop  offset="0" style="stop-color:#46EEAA"/>
				<stop  offset="1" style="stop-color:#2CBFC7"/>
			</linearGradient>
			<path class="st20" d="M490.1,567.9v-8.7l-15.3-8.6l-14.4-24.6l-7.5,5.9l-15.1-30c0,0-16.1,10.1-23.2,14.4v8.3
				c0,2.1,1.5,4.7,3.3,5.8l68.8,39.6C488.6,570.8,490.1,570,490.1,567.9z"/>
		</g>
	</g>
	<g>
		<g class="st0">
			<path class="st1" d="M35,513.4l17.3-10.7c2.2-1.3,2.2-3.4,0.1-4.7l-31.7-18.3c-2.3-1.3-6-1.3-8.2,0.1l-17.3,10.7
				c-2.2,1.3-2.2,3.4-0.1,4.7l31.7,18.3C29.1,514.8,32.8,514.8,35,513.4z"/>
		</g>
		<g>
			<linearGradient id="SVGID_9_" gradientUnits="userSpaceOnUse" x1="62.3098" y1="377.6543" x2="49.328" y2="331.2486">
				<stop  offset="0" style="stop-color:#F8A980"/>
				<stop  offset="1" style="stop-color:#FFDF75"/>
			</linearGradient>
			<path class="st21" d="M64.3,337.5c-1.2,3.9-3.8,13-6.6,18.5c-2.7,5.2-6.7,11.1-8.1,10.9c-1.2-0.2-0.3-0.6-1.6-0.4
				c-1.3,0.2-6.5,4.3-5.3,5.3c0,0.1,0,0.1,0,0.1s2.7,2.7,6.6,3.6c0.2,0.1,0.4,0.1,0.6,0.1c0.4,0,0.7-0.1,1-0.4
				c1.7-0.8,11.5-6.3,15.4-25.1c0.1-0.3,1.5-7.7,2.1-15.6C68.4,333.4,65.5,333.6,64.3,337.5z"/>
			<g>
				<linearGradient id="SVGID_10_" gradientUnits="userSpaceOnUse" x1="26.6034" y1="500.4707" x2="-2.9414" y2="407.0613">
					<stop  offset="0" style="stop-color:#F8A980"/>
					<stop  offset="1" style="stop-color:#FFDF75"/>
				</linearGradient>
				<path class="st22" d="M11,441.8c0.1,0.3,0.9,9-1.6,25.1c-2.5,16.1-2.6,16.8-2.9,19.9c-0.1,2.1,3.6,4.2,6.7,5.2
					c3.1,1,9.7,1.6,12.6-1.4c1.1-2.1-0.6-3.1-0.6-3.1s-2.9,0.3-4.2,0.3c-1-0.1-4.2-0.3-3.9-1.8c0.4-1.5,3.6-19.3,4.4-28.6
					c0.8-9.3,1.3-19.1,1.3-19.1l-2-4.6l-12.1-1.5L11,441.8z"/>
				<path class="st23" d="M29.4,488.1c-1.9-1-4.4-0.8-4.4-0.8s-1.1,0.2,0.3,1.1c0.8,0.3,1.2,3.1-3.4,3.7c-3.9,0.6-4.9,0.5-7-0.1
					c0,0-0.1,0-0.1,0c-7.8-2.2-7.6-7.6-8.4-6.7c-1.1,1.2-2.2,2.2-2.2,4.8c0,1.3,0.2,2.8,0.8,3.9c0.9,2,1.4,5.1,1.5,5.1v2.7
					c0,0.6,0.4,0.9,1,0.9c0.6,0,1.2-0.2,1.2-0.9v-3.4c0.2-1.8,0.8-3.1,0.8-3.1s0.7-1.5,1.7-0.1c1,1.5,2.5,3.9,5.8,3.9
					c3.4,0,5.7-1.2,9.6-4C30.7,492.2,31.4,489.1,29.4,488.1z"/>
			</g>
			<g>
				<linearGradient id="SVGID_11_" gradientUnits="userSpaceOnUse" x1="41.8233" y1="505.0959" x2="12.2792" y2="411.6884">
					<stop  offset="0" style="stop-color:#F8A980"/>
					<stop  offset="1" style="stop-color:#FFDF75"/>
				</linearGradient>
				<path class="st24" d="M26.2,446.5c0.1,0.3,0.9,9-1.6,25.1c-2.5,16.1-2.6,16.7-2.9,19.9c-0.1,2.1,3.6,4.2,6.7,5.2
					c3.1,1,9.7,1.6,12.6-1.4c1.1-2.1-0.6-3.1-0.6-3.1s-2.9,0.3-4.2,0.3c-1-0.1-4.2-0.3-3.9-1.8c0.4-1.5,3.6-19.2,4.4-28.6
					c0.8-9.3,1.3-19.1,1.3-19.1l-2-4.6L24,436.8L26.2,446.5z"/>
				<path class="st23" d="M44.7,492.7c-1.9-1-4.4-0.8-4.4-0.8s-1.1,0.2,0.3,1.1c0.8,0.3,1.2,3.1-3.4,3.8c-3.9,0.6-5,0.5-7-0.1
					c0,0-0.1,0-0.1,0c-7.8-2.2-7.6-7.6-8.4-6.7c-1.1,1.2-2.2,2.2-2.2,4.8c0,1.3,0.2,2.8,0.8,3.9c0.9,2,1.4,5.1,1.5,5.1v2.7
					c0,0.6,0.4,0.9,1,0.9c0.6,0,1.2-0.2,1.2-0.9V503c0.2-1.8,0.8-3.1,0.8-3.1s0.7-1.5,1.7-0.1c1,1.5,2.5,3.9,5.8,3.9
					c3.4,0,5.7-1.2,9.6-4C45.9,496.8,46.6,493.7,44.7,492.7z"/>
			</g>
			<linearGradient id="SVGID_12_" gradientUnits="userSpaceOnUse" x1="5.8467" y1="362.8897" x2="-4.8975" y2="363.3745">
				<stop  offset="0" style="stop-color:#F8A980"/>
				<stop  offset="1" style="stop-color:#FFDF75"/>
			</linearGradient>
			<path class="st25" d="M11.2,363.7c0,3.7,7.7,6.7-6.3,6.7c-3.5,0-5.8-3-6.5-6.7c-2.5-12.6,3-6.7,6.5-6.7
				C8.3,357.1,11.2,360,11.2,363.7z"/>
			<linearGradient id="SVGID_13_" gradientUnits="userSpaceOnUse" x1="-9.5565" y1="339.8458" x2="5.4392" y2="339.3981">
				<stop  offset="0" style="stop-color:#46EEAA"/>
				<stop  offset="1" style="stop-color:#2CBFC7"/>
			</linearGradient>
			<path class="st26" d="M12.6,345.7c0-1-3.9-14.8-3.9-15c0-0.2-1.4-3.2-2.2-4.8c0.7-3.6,8.5-11.5-1.4-8c-3.6,1.3-4.8,3.2-5.8,7.3
				c-0.5,1.9-0.6,3.7-0.4,5.1c0.2,1.1,0.2,9.3-1.1,16c-1.4,6.9-2.3,12.5,0.3,14.1c2.6,1.6,5.9,1.4,8.3,1.2c2.4-0.2,8-2.6,8-2.6
				S12.6,346.7,12.6,345.7z"/>
			<linearGradient id="SVGID_14_" gradientUnits="userSpaceOnUse" x1="-9.1444" y1="311.8545" x2="44.5731" y2="434.8077">
				<stop  offset="0" style="stop-color:#46EEAA"/>
				<stop  offset="1" style="stop-color:#2CBFC7"/>
			</linearGradient>
			<path class="st27" d="M39.4,373c-2.5-4.1-2.5-4-2.5-6.5c0-2.5,0.1-10.4,1-17.1c0.8-6.7,3.1-8.7,2.7-13.6c-0.4-4.9,0-9.3-8.9-13.1
				c-4-1-13.9-5.3-17.4-5.6c-0.9-0.3-2-0.4-3-0.4c-4.4,0-8.1,2.4-9,5.7c-2,5.2-0.2,12.5,0.3,21.3c0.6,9.2,4.6,21.5,4.9,22.5
				c0.2,1,0.8,2.1-0.2,3.2c-4.2,4.9-5.2,11.9-5.2,11.9s0,0.1,0,0.2c-0.2,1.2-0.3,2.5-0.3,3.8c0,0.7,0,1.4,0.1,2.1
				c0,2.3,0.9,4.3,3.1,11.6c2.6,12.4,0.8,40.2,0.8,40.2c0,4.2,8,7.7,17.8,7.7c9.8,0,17.8-3.4,17.8-7.7c0,0,0.2-40,0.4-45.7
				C42,387.7,42,377.1,39.4,373z"/>
			<path class="st23" d="M60.3,355.1c-0.5,1.4-2.1,2.1-3.5,1.5L32,346.9c-1.4-0.5-2.1-2.1-1.5-3.5l13.5-34.5
				c0.5-1.4,2.1-2.1,3.5-1.5l24.8,9.7c1.4,0.5,2.1,2.1,1.5,3.5L60.3,355.1z"/>
			<linearGradient id="SVGID_15_" gradientUnits="userSpaceOnUse" x1="52.7035" y1="310.3218" x2="51.2486" y2="363.1434">
				<stop  offset="0" style="stop-color:#15EDED"/>
				<stop  offset="1" style="stop-color:#029CF5"/>
			</linearGradient>
			<polygon class="st28" points="57.8,354.1 57.8,354.1 57.8,354.1 33,344.4 46.4,309.9 71.2,319.6 57.8,354.1 57.8,354.1 			"/>
			<linearGradient id="SVGID_16_" gradientUnits="userSpaceOnUse" x1="27.8805" y1="335.334" x2="56.866" y2="370.6986">
				<stop  offset="0" style="stop-color:#46EEAA"/>
				<stop  offset="1" style="stop-color:#2CBFC7"/>
			</linearGradient>
			<path class="st29" d="M47.4,362.9c0,0-1.5-3.2-3.8-8c-2.4-5-4.6-10.1-3.8-13.3c0.5-2.3,0.7-5,0.8-6.4c0-0.3,0-0.7,0-1
				c0-5.2-3.3-9.4-7.3-9.4c-3.9,0-7,3.9-7.3,8.8c0,0,0,0,0,0c-0.7,7,4.2,18.4,5.9,21.3c1.7,2.9,5.5,11.6,6.3,13.5
				c0.8,1.8,3.3,4.2,5.1,4.6c1.8,0.4,4.7-3.7,5.7-5.2C49.7,366.6,47.4,362.9,47.4,362.9z"/>
			<g>
				<linearGradient id="SVGID_17_" gradientUnits="userSpaceOnUse" x1="25.0889" y1="322.8186" x2="16.9738" y2="304.5738">
					<stop  offset="0" style="stop-color:#F8A980"/>
					<stop  offset="1" style="stop-color:#FFDF75"/>
				</linearGradient>
				<path class="st30" d="M28.5,312.9l-0.5-0.8l-2.4-2.3l-5-0.3l-3.9,0.9c0,0,0.5,1.1,0.3,3.8c-0.3,2.7-0.7,3.8-0.9,4.2
					c-0.1,0.2-0.2,0.3-0.3,0.5c-0.3,1.4,1.9,3,4.9,3.6c3,0.6,5.6-0.1,5.8-1.5c0-0.1,0-0.3,0-0.4c0-0.4,0.1-1.1,0.1-2.2
					C26.9,315.2,28.5,312.9,28.5,312.9z"/>
				<linearGradient id="SVGID_18_" gradientUnits="userSpaceOnUse" x1="30.0863" y1="316.5693" x2="30.422" y2="273.3713">
					<stop  offset="0" style="stop-color:#F8A980"/>
					<stop  offset="1" style="stop-color:#FFDF75"/>
				</linearGradient>
				<path class="st31" d="M41.9,287.8c0.1,1.4,0.2,6.9,0.2,8.4c0,8.7-2.5,15.1-6.8,16.3c-13.7,3.6-17-3.5-17-12.1
					c0-8.7,15.8-19.8,18.6-19.8C39.3,280.5,41.3,281.3,41.9,287.8z"/>
				<linearGradient id="SVGID_19_" gradientUnits="userSpaceOnUse" x1="18.9028" y1="279.0801" x2="29.7948" y2="309.1466">
					<stop  offset="0" style="stop-color:#2C4755"/>
					<stop  offset="1" style="stop-color:#334752"/>
				</linearGradient>
				<path class="st32" d="M42.4,285.2c0,0.8-0.1,3.3-0.8,3.3c-3.4-0.1-6,1.5-4.9,5.6c0.7,2.9-0.1,7.9-3.5,15.5
					c-1,2.1,1.3,5.5-0.2,5.5c-0.5,0-1.7-0.6-1.8-3.7c0-4,2-7,2.2-8c2.2-8.1-4-7.1-4.9-5.7c-1.3,2-3.5,4.5,0.2,8
					c3,2.9-5.3,7.1-7.7,6.4c-6.4-1.8-6.5,1.4-7.6,2.8c-5.8,7.3-4.7-24.2-4.7-29.8c0-5.7,6.3-9.7,15.7-9.7
					C33.6,275.5,42.4,279.5,42.4,285.2z"/>
				<linearGradient id="SVGID_20_" gradientUnits="userSpaceOnUse" x1="8.31" y1="283.7308" x2="25.7692" y2="297.9072">
					<stop  offset="0" style="stop-color:#FF7C6E"/>
					<stop  offset="1" style="stop-color:#F5317F"/>
				</linearGradient>
				<path class="st33" d="M20.4,288c0,4.2-3,7.6-6.8,7.6c-3.8,0-6.8-3.4-6.8-7.6c0-4.2,3-7.6,6.8-7.6
					C17.4,280.5,20.4,283.8,20.4,288z"/>
				<linearGradient id="SVGID_21_" gradientUnits="userSpaceOnUse" x1="9.3814" y1="302.8464" x2="13.8579" y2="331.4958">
					<stop  offset="0" style="stop-color:#2C4755"/>
					<stop  offset="1" style="stop-color:#334752"/>
				</linearGradient>
				<path class="st34" d="M16.9,300.8c1.1-9.1,1.2-10.5,0.9-12c0,0,0,0,0,0c-0.4-3.1-2.7-5.5-5.5-5.5c-2.8,0-4.3,2.5-5.5,5.4h0
					c0,0-6.4,15-5.1,29.8c1.3,14.8,1.1,15.6,8.5,28.5c3,6.2,3.3,6.8,3.1,9.2c-0.2,2.4,1.8,3.7,2.2-1.3c0.4-4.9,0.7-11-2.6-21
					c-1.9-6-1.5-11.4-0.4-15.9C13.7,313.5,15.3,309.6,16.9,300.8z"/>
			</g>
		</g>
	</g>
	<g>
		<g class="st0">
			<g>
				<path class="st1" d="M399.1,255.8c-2.6-1.5-4.7-0.3-4.7,2.7v119.9c0,3,2.1,6.6,4.7,8.1l42.6,24.5c2.6,1.5,4.7,0.3,4.7-2.7V288.4
					c0-3-2.1-6.6-4.7-8.1L399.1,255.8z"/>
			</g>
		</g>
		<g>
			<path class="st2" d="M433.5,286l-42.6-24.5c-1.3-0.7-2.5-0.8-3.3-0.3c-4.2,1.7-6,2.8-6.6,3.2c-0.9,0.5-1.4,1.5-1.4,3v119.9
				c0,3,2.1,6.6,4.7,8l42.6,24.5c0.7,0.4,1.3,0.6,1.9,0.6c0.3,0,2.1,0.2,5.1-1.7c1.6-1,2.4-1.5,2.9-1.8c0.1-0.1,0.2-0.1,0.3-0.2
				c0,0,0,0,0,0l0,0c0.7-0.5,1.2-1.5,1.2-2.9V294.1C438.1,291.1,436,287.5,433.5,286z"/>
			<g>
				<g>
					<path class="st10" d="M384.1,264.7c-2.6-1.5-4.7-0.3-4.7,2.7v119.9c0,3,2.1,6.6,4.7,8l42.6,24.5c2.6,1.5,4.7,0.3,4.7-2.7V297.3
						c0-3-2.1-6.6-4.7-8L384.1,264.7z"/>
				</g>
			</g>
			<g>
				<polygon class="st35" points="392.8,299.9 412.2,311.1 412.2,301.5 392.8,290.3 				"/>
				<polygon class="st35" points="424.3,343.6 424.3,334 390.8,314.7 390.8,324.3 				"/>
				<polygon class="st35" points="414.9,342.1 385.1,324.9 385.1,334.6 414.9,351.7 				"/>
				<polygon class="st35" points="390.8,351.3 424.3,370.6 424.3,361 390.8,341.7 				"/>
				<polygon class="st35" points="385.1,361.6 424.3,384.1 424.3,374.5 385.1,351.9 				"/>
				<polygon class="st35" points="385.1,365.4 385.1,375.1 404.4,386.2 404.4,376.6 				"/>
			</g>
		</g>
	</g>
	<g>
		<g class="st0">
			<g>
				<path class="st1" d="M302.5,81.2c-2.6-1.5-4.7-0.3-4.7,2.7v119.9c0,3,2.1,6.6,4.7,8.1l42.6,24.5c2.6,1.5,4.7,0.3,4.7-2.7V113.8
					c0-3-2.1-6.6-4.7-8.1L302.5,81.2z"/>
			</g>
		</g>
		<g>
			<path class="st2" d="M336.9,111.4l-42.6-24.5c-1.3-0.7-2.5-0.8-3.3-0.3c-4.2,1.7-6,2.8-6.6,3.2c-0.9,0.5-1.4,1.5-1.4,3v119.9
				c0,3,2.1,6.6,4.7,8.1l42.6,24.5c0.7,0.4,1.3,0.6,1.9,0.6c0.3,0,2.1,0.2,5.1-1.7c1.6-1,2.4-1.5,2.9-1.8c0.1-0.1,0.2-0.1,0.3-0.2
				c0,0,0,0,0,0s0,0,0,0c0.7-0.5,1.2-1.5,1.2-2.9V119.5C341.6,116.5,339.5,112.9,336.9,111.4z"/>
			<g>
				<g>
					<path class="st10" d="M287.6,90.2c-2.6-1.5-4.7-0.3-4.7,2.7v119.9c0,3,2.1,6.6,4.7,8.1l42.6,24.5c2.6,1.5,4.7,0.3,4.7-2.7
						V122.7c0-3-2.1-6.6-4.7-8.1L287.6,90.2z"/>
				</g>
			</g>
			<g>
				<polygon class="st35" points="296.2,125.3 315.7,136.6 315.7,126.9 296.2,115.7 				"/>
				<polygon class="st35" points="327.7,169 327.7,159.4 294.2,140.1 294.2,149.7 				"/>
				<polygon class="st35" points="318.4,167.5 288.5,150.3 288.5,160 318.4,177.1 				"/>
				<polygon class="st35" points="294.2,176.7 327.7,196 327.7,186.4 294.2,167.1 				"/>
				<polygon class="st35" points="288.5,187 327.7,209.5 327.7,199.9 288.5,177.3 				"/>
				<polygon class="st35" points="288.5,190.9 288.5,200.5 307.9,211.6 307.9,202 				"/>
			</g>
		</g>
	</g>
	<g>
		<path class="st8" d="M443.7,230c0.1,0,0.2,0,0.3,0.1c0.1,0,0.2,0,0.4,0c0.1,0,0.1,0,0.2,0c0.1,0,0.2-0.1,0.3-0.1
			c0.7-0.3,1.1-1,1.1-2.2v-64.1c0-2-1.5-4.6-3.2-5.6l-72.5-41.7c-1-0.6-2-0.5-2.6,0c-0.1,0.1-0.1,0.1-0.2,0.2
			c-0.1,0.1-0.1,0.2-0.2,0.2c0,0.1-0.1,0.1-0.1,0.2c0,0.1-0.1,0.2-0.1,0.4c0,0.1,0,0.1-0.1,0.2c0,0.2-0.1,0.4-0.1,0.7v64.1
			c0,2,1.5,4.6,3.2,5.6l39.6,22.8l0,0l20,11.5v0l6.3,3.6l0.2,0.1l6.4,3.7c0.2,0.1,0.4,0.2,0.6,0.3C443.5,230,443.6,230,443.7,230z"
			/>
		<g>
			<g>
				<linearGradient id="SVGID_22_" gradientUnits="userSpaceOnUse" x1="422.5022" y1="106.4616" x2="371.4706" y2="241.6505">
					<stop  offset="0" style="stop-color:#15EDED"/>
					<stop  offset="1" style="stop-color:#029CF5"/>
				</linearGradient>
				<path class="st36" d="M433.9,163.7l-72.5-41.7c-0.7-0.4-1.3-0.5-1.9-0.4c-0.3,0-0.7,0.3-3.2,1.3c-1.9,0.8-2.8,1.5-3.2,1.8
					c-0.5,0.4-0.8,1-0.8,2v64.1c0,2,1.5,4.6,3.2,5.6l61,35.1l5.1,2.9l6.4,3.7c0.9,0.5,1.7,0.5,2.2,0.2c0.4-0.1,1-0.3,2.1-0.7
					c2.1-0.7,3.2-1.6,3.8-2.2c0.5-0.4,0.9-1.1,0.9-2v-64.1C437.1,167.2,435.7,164.7,433.9,163.7z"/>
			</g>
			<linearGradient id="SVGID_23_" gradientUnits="userSpaceOnUse" x1="398.9587" y1="148.1142" x2="378.8147" y2="242.5672">
				<stop  offset="0" style="stop-color:#15EDED"/>
				<stop  offset="1" style="stop-color:#029CF5"/>
			</linearGradient>
			<path class="st37" d="M429.1,238.4c0.1,0,0.2,0,0.3,0.1c0.1,0,0.2,0,0.4,0c0.1,0,0.1,0,0.2,0c0.1,0,0.2-0.1,0.3-0.1
				c0.7-0.3,1.1-1,1.1-2.2v-64.1c0-2-1.5-4.6-3.2-5.6l-72.5-41.7c-1-0.6-2-0.5-2.6,0c-0.1,0.1-0.1,0.1-0.2,0.2
				c-0.1,0.1-0.1,0.2-0.2,0.2c0,0.1-0.1,0.1-0.1,0.2c0,0.1-0.1,0.2-0.1,0.4c0,0.1,0,0.1-0.1,0.2c0,0.2-0.1,0.4-0.1,0.7v64.1
				c0,2,1.5,4.6,3.2,5.6l39.6,22.8l0,0l20,11.5v0l6.3,3.6l0.2,0.1l6.4,3.7c0.2,0.1,0.4,0.2,0.6,0.3
				C428.9,238.3,429,238.4,429.1,238.4z"/>
			<path class="st19" d="M401.4,196.4c5.4,8.4,14.5,12.2,20.2,8.4c5.7-3.7,5.9-13.5,0.5-21.9c-5.4-8.4-14.5-12.2-20.2-8.5
				C396.1,178.2,395.9,188,401.4,196.4z"/>
			<path class="st35" d="M427,221.7l-20.1-34.5l-10.4,8.2l-21.2-42.1c0,0-12.4,7.8-22.8,14.2v23.1c0,2,1.5,4.6,3.2,5.6l39.6,22.8
				l0,0l20,11.5v0l6.3,3.6l0.2,0.1l6.4,3.7c0.2,0.1,0.4,0.2,0.6,0.3c0.1,0,0.2,0,0.3,0.1c0.1,0,0.2,0,0.3,0.1c0.1,0,0.2,0,0.4,0
				c0.1,0,0.1,0,0.2,0c0.1,0,0.2-0.1,0.3-0.1c0.7-0.3,1.1-1,1.1-2.2v-12L427,221.7z"/>
		</g>
	</g>
	<g>
		<path class="st8" d="M366.2,376.6c0.1,0,0.1,0,0.2,0c0.1,0,0.2,0,0.2,0c0,0,0.1,0,0.1,0c0.1,0,0.1,0,0.2-0.1
			c0.4-0.2,0.7-0.7,0.7-1.4v-40.6c0-1.3-0.9-2.9-2-3.5l-45.9-26.4c-0.7-0.4-1.2-0.3-1.6,0c0,0-0.1,0.1-0.1,0.1c0,0-0.1,0.1-0.1,0.2
			c0,0-0.1,0.1-0.1,0.1c0,0.1-0.1,0.1-0.1,0.2c0,0,0,0.1,0,0.1c0,0.1,0,0.3,0,0.4v40.6c0,1.3,0.9,2.9,2,3.5l25.1,14.4l0,0l12.6,7.3
			v0l4,2.3l0.1,0.1l4,2.3c0.1,0.1,0.3,0.1,0.4,0.2C366.1,376.6,366.1,376.6,366.2,376.6z"/>
		<g>
			<g>
				<linearGradient id="SVGID_24_" gradientUnits="userSpaceOnUse" x1="335.4854" y1="277.6247" x2="335.1072" y2="365.3175">
					<stop  offset="0" style="stop-color:#46EEAA"/>
					<stop  offset="1" style="stop-color:#2CBFC7"/>
				</linearGradient>
				<path class="st38" d="M360,334.6l-45.9-26.4c-0.4-0.3-0.8-0.3-1.2-0.2c-0.2,0-0.4,0.2-2,0.8c-1.2,0.5-1.8,0.9-2,1.1
					c-0.3,0.2-0.5,0.7-0.5,1.2v40.6c0,1.3,0.9,2.9,2,3.5l38.6,22.2l3.3,1.9l4,2.3c0.5,0.3,1,0.3,1.4,0.2c0.2-0.1,0.6-0.2,1.3-0.4
					c1.3-0.5,2.1-1,2.4-1.4c0.3-0.2,0.5-0.7,0.5-1.3v-40.6C362,336.8,361.1,335.2,360,334.6z"/>
			</g>
			<linearGradient id="SVGID_25_" gradientUnits="userSpaceOnUse" x1="328.0792" y1="321.5054" x2="347.7346" y2="411.8439">
				<stop  offset="0" style="stop-color:#46EEAA"/>
				<stop  offset="1" style="stop-color:#2CBFC7"/>
			</linearGradient>
			<path class="st39" d="M356.9,381.9c0.1,0,0.1,0,0.2,0c0.1,0,0.2,0,0.2,0c0,0,0.1,0,0.1,0c0.1,0,0.1,0,0.2-0.1
				c0.4-0.2,0.7-0.7,0.7-1.4v-40.6c0-1.3-0.9-2.9-2-3.5l-45.9-26.4c-0.7-0.4-1.2-0.3-1.6,0c0,0-0.1,0.1-0.1,0.1c0,0-0.1,0.1-0.1,0.1
				c0,0-0.1,0.1-0.1,0.1c0,0.1-0.1,0.1-0.1,0.2c0,0,0,0.1,0,0.1c0,0.1,0,0.3,0,0.4v40.6c0,1.3,0.9,2.9,2,3.5l25.1,14.4l0,0l12.6,7.3
				v0l4,2.3l0.1,0.1l4,2.3c0.1,0.1,0.3,0.1,0.4,0.2C356.8,381.9,356.9,381.9,356.9,381.9z"/>
		</g>
	</g>
	<g>
		<path class="st8" d="M343.4,302.7c0.1,0,0.1,0,0.2,0c0.1,0,0.2,0,0.2,0c0,0,0.1,0,0.1,0c0.1,0,0.1,0,0.2-0.1
			c0.4-0.2,0.7-0.7,0.7-1.4v-40.6c0-1.3-0.9-2.9-2-3.5l-45.9-26.4c-0.7-0.4-1.2-0.3-1.6,0c0,0-0.1,0.1-0.1,0.1c0,0-0.1,0.1-0.1,0.1
			c0,0-0.1,0.1-0.1,0.1c0,0.1,0,0.1-0.1,0.2c0,0,0,0.1,0,0.1c0,0.1,0,0.3,0,0.4v40.6c0,1.3,0.9,2.9,2,3.5l25.1,14.4l0,0l12.6,7.3v0
			l4,2.3l0.1,0.1l4,2.3c0.1,0.1,0.3,0.1,0.4,0.2C343.2,302.7,343.3,302.7,343.4,302.7z"/>
		<g>
			<g>
				<linearGradient id="SVGID_26_" gradientUnits="userSpaceOnUse" x1="312.657" y1="203.7612" x2="312.2788" y2="291.4551">
					<stop  offset="0" style="stop-color:#FF7C6E"/>
					<stop  offset="1" style="stop-color:#F5317F"/>
				</linearGradient>
				<path class="st40" d="M337.2,260.7l-45.9-26.4c-0.4-0.3-0.8-0.3-1.2-0.2c-0.2,0-0.4,0.2-2,0.8c-1.2,0.5-1.8,0.9-2,1.1
					c-0.3,0.2-0.5,0.7-0.5,1.2v40.6c0,1.3,0.9,2.9,2,3.5l38.6,22.2l3.3,1.9l4,2.3c0.5,0.3,1,0.3,1.4,0.2c0.2-0.1,0.6-0.2,1.3-0.4
					c1.3-0.5,2.1-1,2.4-1.4c0.3-0.2,0.5-0.7,0.5-1.3v-40.6C339.2,262.9,338.3,261.3,337.2,260.7z"/>
			</g>
			<linearGradient id="SVGID_27_" gradientUnits="userSpaceOnUse" x1="305.2504" y1="247.6441" x2="324.9058" y2="337.9827">
				<stop  offset="0" style="stop-color:#FF7C6E"/>
				<stop  offset="1" style="stop-color:#F5317F"/>
			</linearGradient>
			<path class="st41" d="M334.1,308c0.1,0,0.1,0,0.2,0c0.1,0,0.2,0,0.2,0c0,0,0.1,0,0.1,0c0.1,0,0.1,0,0.2-0.1
				c0.4-0.2,0.7-0.6,0.7-1.4V266c0-1.3-0.9-2.9-2-3.5l-45.9-26.4c-0.7-0.4-1.2-0.3-1.6,0c0,0-0.1,0.1-0.1,0.1c0,0-0.1,0.1-0.1,0.2
				c0,0-0.1,0.1-0.1,0.1c0,0.1-0.1,0.1-0.1,0.2c0,0,0,0.1,0,0.1c0,0.1,0,0.3,0,0.4v40.6c0,1.3,0.9,2.9,2,3.5l25.1,14.4l0,0l12.6,7.3
				v0l4,2.3l0.1,0.1l4,2.3c0.1,0.1,0.3,0.1,0.4,0.2C334,308,334,308,334.1,308z"/>
		</g>
	</g>
	<g>
		<g>
			<linearGradient id="SVGID_28_" gradientUnits="userSpaceOnUse" x1="324.7308" y1="-3.0744" x2="275.9719" y2="88.3987">
				<stop  offset="0" style="stop-color:#46EEAA"/>
				<stop  offset="1" style="stop-color:#2CBFC7"/>
			</linearGradient>
			<path class="st42" d="M317.2,68.2l-72.5-41.7c-0.7-0.4-1.3-0.5-1.9-0.4c-0.3,0-0.7,0.3-3.2,1.3c-2,0.8-2.8,1.5-3.2,1.8
				c-0.5,0.4-0.8,1-0.8,2v64.1c0,2,1.5,4.6,3.2,5.6l48.6,28l11,31l6.5-3.3v-17.6l6.4,3.7c0.9,0.5,1.7,0.5,2.2,0.2
				c0.4-0.1,1-0.3,2.1-0.7c2.1-0.7,3.2-1.6,3.8-2.2c0.5-0.4,0.9-1.1,0.9-2V73.7C320.4,71.7,319,69.2,317.2,68.2z"/>
			<linearGradient id="SVGID_29_" gradientUnits="userSpaceOnUse" x1="277.8473" y1="56.7267" x2="265.2372" y2="194.1933">
				<stop  offset="0" style="stop-color:#46EEAA"/>
				<stop  offset="1" style="stop-color:#2CBFC7"/>
			</linearGradient>
			<path class="st43" d="M311.4,71l-72.5-41.7c-1.8-1-3.2-0.2-3.2,1.9v64.1c0,2,1.5,4.6,3.2,5.6l39.6,22.8l20,36.3v-24.8l12.9,7.4
				c1.8,1,3.2,0.2,3.2-1.9V76.6C314.7,74.5,313.2,72,311.4,71z"/>
		</g>
		<g>
			<path class="st44" d="M263.8,89.7l-7.6-9.6c-0.3-0.3-0.4-0.6-0.5-0.8c-0.1-0.2-0.2-0.5-0.2-0.7v-0.5c0-0.2,0.1-0.4,0.2-0.6
				c0.1-0.1,0.3-0.2,0.5-0.3l7.6-1.6c0,0,0.1,0,0.2,0c0.1,0,0.2,0,0.3,0.1c0.1,0.1,0.3,0.2,0.4,0.3c0.1,0.1,0.1,0.3,0.1,0.5v1.1
				c0,0.2,0,0.3-0.1,0.4c-0.1,0.1-0.2,0.1-0.4,0.2l-6.6,1.4l6.6,8.3c0.2,0.3,0.4,0.5,0.4,0.6c0.1,0.2,0.1,0.3,0.1,0.5V90
				c0,0.2,0,0.3-0.1,0.3c-0.1,0-0.2,0-0.4,0C264.3,90.2,264.1,90,263.8,89.7z"/>
			<path class="st44" d="M267.4,95.7c-0.1-0.2-0.1-0.3-0.1-0.4c0-0.1,0-0.2,0.1-0.3l8.4-16.9c0.1-0.2,0.4-0.2,0.6-0.1l0.9,0.5
				c0.1,0.1,0.2,0.2,0.3,0.3c0.1,0.2,0.1,0.3,0.1,0.4c0,0.1,0,0.2-0.1,0.3l-8.4,16.8c0,0.1-0.1,0.2-0.2,0.2c-0.1,0-0.2,0-0.4-0.1
				l-0.9-0.4C267.6,96,267.5,95.9,267.4,95.7z"/>
			<path class="st44" d="M280.1,98.2c-0.1-0.2-0.1-0.3-0.1-0.5v-1.1c0-0.2,0-0.3,0.1-0.4c0.1-0.1,0.2-0.1,0.4-0.2l6.6-1.3l-6.6-8.2
				c-0.2-0.2-0.3-0.4-0.4-0.6c-0.1-0.2-0.1-0.3-0.1-0.5v-1c0-0.2,0-0.3,0.1-0.3c0.1,0,0.2,0,0.4,0c0.1,0.1,0.2,0.2,0.4,0.3
				c0.1,0.2,0.2,0.2,0.3,0.3l7.6,9.5c0.3,0.3,0.4,0.6,0.5,0.8c0.1,0.2,0.2,0.5,0.2,0.7v0.4c0,0.2-0.1,0.4-0.2,0.5
				c-0.1,0.1-0.3,0.2-0.5,0.2l-7.6,1.5c-0.3,0.1-0.5,0-0.6,0C280.3,98.4,280.2,98.3,280.1,98.2z"/>
		</g>
	</g>
	<g>
		<g class="st0">
			<g>
				<path class="st1" d="M230.4,428.6c-2.5-1.4-6.6-1.4-9,0.1l-19.1,11.7c-2.5,1.5-2.4,3.9,0.1,5.4l62.3,35.8c2.5,1.4,6.6,1.4,9-0.1
					l19.1-11.7c2.5-1.5,2.4-3.9-0.1-5.4L230.4,428.6z"/>
			</g>
		</g>
		<g>
			<linearGradient id="SVGID_30_" gradientUnits="userSpaceOnUse" x1="211.2466" y1="292.2202" x2="253.2218" y2="283.1626">
				<stop  offset="0" style="stop-color:#F8A980"/>
				<stop  offset="1" style="stop-color:#FFDF75"/>
			</linearGradient>
			<path class="st45" d="M214.9,287.5l23.8-1c0,0,0.7-3.5,3.5-3.2c2.8,0.3,10.9-0.1,10.9-0.1s4.9-0.8-2.4,2.4
				c-7.3,3.2-8.6,4.2-10.8,3.5c-1.7,0.1-21.7,6.5-23.5,5.6c-1.7-0.9-1.4-3.1-1.4-3.1L214.9,287.5z"/>
			<linearGradient id="SVGID_31_" gradientUnits="userSpaceOnUse" x1="212.8003" y1="272.4181" x2="234.042" y2="272.4181">
				<stop  offset="0" style="stop-color:#AFF57A"/>
				<stop  offset="1" style="stop-color:#54D169"/>
			</linearGradient>
			<path class="st46" d="M233.9,250.1h-3.9c0,0-7,2.1-10.9,14.3c-4,12.1-6,17.9-6.1,20.5c-0.1,2.6-1.1,7.8,1.8,9.3
				c2.9,1.4,5.1-0.2,6.5-1.9c1.4-1.7,0.8-3.4,2.1-6.8c1.3-3.4,2.1-8.5,4.6-10.3c2.5-1.8,6-6.4,6-6.4L233.9,250.1z"/>
			<linearGradient id="SVGID_32_" gradientUnits="userSpaceOnUse" x1="220.4892" y1="443.7191" x2="239.7119" y2="443.7191">
				<stop  offset="0" style="stop-color:#334752"/>
				<stop  offset="1" style="stop-color:#6A6D89"/>
			</linearGradient>
			<path class="st47" d="M221.9,439.9l-1,0.8c0,0-0.3,2.5-0.2,3.9c0.1,1.5-0.6,3,0.2,3.3c0.8,0.3,2.8,0.9,4.2,0.3
				c1.4-0.6,1.2-2.1,2.1-2.1c0.9,0.1,5.9-1.2,9.3-2.9c3.4-1.7,4.5-4.2,1.7-4c-2.8,0.2-8.8,1.2-11.2,1.6c-0.5,0.1-0.6-0.3-0.6-0.3
				l-1-0.2l-1.3-0.2L221.9,439.9z"/>
			<path class="st48" d="M226.4,440.6c0,0.8-1.2,1.4-2.8,1.4c-1.5,0-2.8-0.6-2.8-1.4c0-0.8,1.2-1.4,2.8-1.4
				C225.1,439.3,226.4,439.9,226.4,440.6z"/>
			<linearGradient id="SVGID_33_" gradientUnits="userSpaceOnUse" x1="146.2693" y1="415.6562" x2="287.4384" y2="359.3212">
				<stop  offset="0" style="stop-color:#15EDED"/>
				<stop  offset="1" style="stop-color:#029CF5"/>
			</linearGradient>
			<path class="st49" d="M230.9,325.3c-6,1.2-4.3,4.5-4.3,7.5c0,3.1-1.8,19.5-4,40.8c-2,19.7-1,28.2-1.2,43.3
				c-0.2,12-1,18.2-1.4,20.2c-0.1,0.3-0.1,0.5-0.1,0.8c0,1.7,1.8,3.1,3.9,3.1c2.2,0,3.9-1.4,3.9-3.1c0,0,2.3-30.1,2.7-33.3
				c2-15.9,7.4-35,9.4-42.1c2-7.1,10.7-31.9,10.7-31.9S244.2,322.8,230.9,325.3z"/>
			<linearGradient id="SVGID_34_" gradientUnits="userSpaceOnUse" x1="254.2506" y1="260.3835" x2="246.0771" y2="243.8137">
				<stop  offset="0" style="stop-color:#F8A980"/>
				<stop  offset="1" style="stop-color:#FFDF75"/>
			</linearGradient>
			<path class="st50" d="M241.3,258.3c0.5-0.9,3.7-7.8,4.2-12.3c0.5-4.6,0.3-7.1,0.6-7.2c0.3-0.1,3.1-0.8,3.1-0.8l5.4,2.9l2.5,1.1
				c0,0,1.5,3.9-0.5,5.8c-4.8,4.3-3.8,14.7-0.6,14.5c0.3,0,0,3.4-3.2,2.3c-3.2-1.1-7.3-3.1-7.8-3.6
				C244.4,260.4,241.3,258.3,241.3,258.3z"/>
			<linearGradient id="SVGID_35_" gradientUnits="userSpaceOnUse" x1="245.207" y1="244.1988" x2="269.0668" y2="228.9549">
				<stop  offset="0" style="stop-color:#F8A980"/>
				<stop  offset="1" style="stop-color:#FFDF75"/>
			</linearGradient>
			<path class="st51" d="M259,240.5c0.6-0.2,1.1-0.7,1.1-1.3c0-0.8-2.4-5.1-3.6-6c-0.1-0.8-0.2-1.8-0.3-2.7
				c-0.2-1.8-0.7-2.9-2.1-2.9c-1.5,0-4.7,0.7-4.7,0.7s-3.8,2.1-3.8,2.2c0,0.1-4.7,10.6-4.7,10.9c0,0.3,6.2,8.1,16.1,8.2
				c1.2,0,2.3-1,2.3-2.3c0-0.3-0.1-0.5-0.1-0.8c-0.1-0.5-0.2-1.3-0.2-1.9c0-1.1,0.6-1.6,0.3-2.1c-0.3-0.5-0.7-0.9-0.5-1.4
				C258.8,241,258.9,240.8,259,240.5z"/>
			<linearGradient id="SVGID_36_" gradientUnits="userSpaceOnUse" x1="267.3708" y1="464.7745" x2="265.9619" y2="457.3161">
				<stop  offset="0" style="stop-color:#334752"/>
				<stop  offset="1" style="stop-color:#6A6D89"/>
			</linearGradient>
			<path class="st52" d="M256.5,456.3l-1.3,1.1c0,0-0.4,3.4-0.2,5.5c0.1,2-0.7,4.2,0.2,4.5c0.9,0.4,3.4,1.2,5.2,0.4
				c1.8-0.8,1.5-3,2.6-2.8c1.1,0.1,7.4-1.7,11.6-4c4.3-2.4,5.6-5.8,2.1-5.6c-3.4,0.2-11,1.7-14,2.3c-0.6,0.2-0.8-0.4-0.8-0.4
				l-1.3-0.2l-1.6-0.2L256.5,456.3z"/>
			<path class="st48" d="M262.1,457.3c0,1-1.5,1.9-3.4,1.9c-1.9,0-3.4-0.9-3.4-1.9c0-1,1.5-1.9,3.4-1.9
				C260.5,455.4,262.1,456.3,262.1,457.3z"/>
			<linearGradient id="SVGID_37_" gradientUnits="userSpaceOnUse" x1="326.7427" y1="480.1624" x2="210.0921" y2="326.7267">
				<stop  offset="0" style="stop-color:#15EDED"/>
				<stop  offset="1" style="stop-color:#029CF5"/>
			</linearGradient>
			<path class="st53" d="M265.2,329.1l-13.8,2.2c-0.9-5.8-4.8-10.1-9.4-10.1c-5.3,0-9.6,5.6-9.6,12.6c0,2.4,0.5,4.7,1.5,6.6
				c2.5,6.8,12.9,14.9,14,25.4c1.2,11.2,4.6,15.9,5.1,22.4c0.5,6.5,1,36.6,1.5,46.2c0.6,9.6,0.9,21,0.9,21c0,1.5,1.4,2.8,3.2,2.8
				c1.8,0,3.2-1.2,3.2-2.8c0,0,3.5-48.8,3.7-59.7c0.2-10.9,0.1-11.6,0.2-25.3C265.8,354.6,265.2,329.1,265.2,329.1z"/>
			<linearGradient id="SVGID_38_" gradientUnits="userSpaceOnUse" x1="233.1111" y1="239.0276" x2="256.3086" y2="331.8179">
				<stop  offset="0" style="stop-color:#AFF57A"/>
				<stop  offset="1" style="stop-color:#54D169"/>
			</linearGradient>
			<path class="st54" d="M265.3,295.3c2.4-9.9,3.9-13.8,3.9-13.8l-1.4-18.3c0,0-5.7-3.4-11.9-4.5c-4.7-0.9-7.2-1.3-11.7-3.6
				c-1.1-0.6-3.3-3.6-8.7-5.1c0,0-5.2-1.6-7.3,2c-2.8,4.7-1.3,10.1,0.1,22c1.4,11.9,1.5,25.7,0,35.9c-0.9,5.9-2.4,12.9-1.6,17.1
				c0,0.1,0,0.1,0,0.1c0,0.4,0.2,0.8,0.3,1.2c0.4,1,0.9,1.7,1.7,2.1c3.2,2.6,9.9,4.4,17.8,4.4c7.5,0,13.8-1.4,17.1-3.7
				c1.5-0.5,3.1-2.3,3.1-7.3C266.5,314.9,262.9,305.2,265.3,295.3z"/>
			<path class="st1" d="M255.1,228.5c0.7-3.6-0.1-11-0.1-11c0-0.6-0.5-1-1.1-1c-9.1-0.3-18.2,11.1-20,13.5c-1,1.1-1.6,2.5-1.6,4.1
				c0,0.5,0.1,0.9,0.2,1.4c0,0,0,0.1,0,0.1c0.6,4.4,7.6,11.7,7.6,11.7l0.1,0c0.8,0.7,1.8,1.2,3,1.2c2,0,3.7-1.4,4-3.2c0,0,0,0,0-0.1
				c0.2-1.1,0.8-3.5,0.5-8c-0.1-1.5,4.5-2.9,4.6-2.9l0.1,0c0.9-0.3,1.5-1,1.8-1.8c0,0,0,0,0,0c0,0,0,0,0,0c0-0.2,0.1-0.3,0.1-0.5
				C254.5,231,254.5,230.8,255.1,228.5z"/>
			<linearGradient id="SVGID_39_" gradientUnits="userSpaceOnUse" x1="278.1805" y1="300.6598" x2="336.5049" y2="292.4854">
				<stop  offset="0" style="stop-color:#F8A980"/>
				<stop  offset="1" style="stop-color:#FFDF75"/>
			</linearGradient>
			<path class="st55" d="M282.3,295.6l30.2-1.3c0,0,0.9-4.4,4.4-4.1c3.5,0.3,13.8-0.1,13.8-0.1s6.2-1-3.1,3.1
				c-9.3,4.1-10.8,5.3-13.7,4.4c-2.1,0.1-27.5,8.2-29.7,7.1c-2.2-1.1-1.8-4-1.8-4L282.3,295.6z"/>
			<linearGradient id="SVGID_40_" gradientUnits="userSpaceOnUse" x1="286.6957" y1="307.7259" x2="259.1681" y2="261.6796">
				<stop  offset="0" style="stop-color:#AFF57A"/>
				<stop  offset="1" style="stop-color:#54D169"/>
			</linearGradient>
			<path class="st56" d="M286,294c-0.3-1.5-2.9-3.7-8.4-16.4c-3.2-7.5-5.8-11-7.4-12.7c-1.5-1.7-3.7-2.8-6.3-2.8
				c-4.5,0-8.1,3.4-8.1,7.6c0,0.5,0.1,1,0.2,1.5c-0.1,5.6,16.5,21.7,19,24.7c2.5,3,3.3,6,6.5,8.6c3.5,2.7,4.5,1.2,3.8-2
				C284.7,299.5,286.8,297.9,286,294z"/>
		</g>
	</g>
	<g>
		<g class="st0">
			<g>
				<path class="st1" d="M419.1,600c2.8-1.6,7.4-1.6,10.2,0.1l21.5,13.2c2.8,1.7,2.7,4.4-0.1,6l-70.3,40.4
					c-2.8,1.6-7.4,1.6-10.2-0.1l-21.5-13.2c-2.8-1.7-2.7-4.4,0.1-6L419.1,600z"/>
			</g>
		</g>
		
			<linearGradient id="SVGID_41_" gradientUnits="userSpaceOnUse" x1="1556.9998" y1="649.6367" x2="1604.3407" y2="639.4213" gradientTransform="matrix(-0.9118 -0.4106 -0.4106 0.9118 2108.6804 499.8817)">
			<stop  offset="0" style="stop-color:#F8A980"/>
			<stop  offset="1" style="stop-color:#FFDF75"/>
		</linearGradient>
		<path class="st57" d="M420.7,446.3l-24-12.1c0,0,0.9-3.9-2.1-4.9c-3-1-11.2-5.1-11.2-5.1s-4.7-3.1,1.4,3.6c6,6.7,6.9,8.3,9.5,8.6
			c1.7,0.9,19.3,16.7,21.5,16.6c2.2-0.1,2.9-2.6,2.9-2.6L420.7,446.3z"/>
		
			<linearGradient id="SVGID_42_" gradientUnits="userSpaceOnUse" x1="1558.7544" y1="627.3042" x2="1582.7097" y2="627.3042" gradientTransform="matrix(-0.9118 -0.4106 -0.4106 0.9118 2108.6804 499.8817)">
			<stop  offset="0" style="stop-color:#EDF2F6"/>
			<stop  offset="1" style="stop-color:#C3D0D8"/>
		</linearGradient>
		<path class="st58" d="M418.4,399.1l4,1.8c0,0,6.2,5.4,4.6,19.7c-1.5,14.3-2.2,21.2-3.3,23.9c-1.1,2.8-2.5,8.6-6.1,8.7
			c-3.6,0.1-5.1-2.6-5.8-5c-0.7-2.4,0.8-3.9,1-8c0.2-4.1,1.8-9.7,0-12.7c-1.8-3-3.2-9.3-3.2-9.3L418.4,399.1z"/>
		
			<linearGradient id="SVGID_43_" gradientUnits="userSpaceOnUse" x1="3673.2012" y1="617.0789" x2="3694.8789" y2="617.0789" gradientTransform="matrix(-1 0 0 1 4103.5195 0)">
			<stop  offset="0" style="stop-color:#334752"/>
			<stop  offset="1" style="stop-color:#6A6D89"/>
		</linearGradient>
		<path class="st59" d="M428.7,612.7l1.2,0.9c0,0,0.3,2.8,0.2,4.4c-0.1,1.6,0.6,3.4-0.2,3.7c-0.9,0.3-3.1,1-4.7,0.3
			c-1.6-0.7-1.4-2.4-2.4-2.3c-1,0.1-6.6-1.4-10.5-3.3c-3.9-1.9-5-4.7-1.9-4.5c3.1,0.2,10,1.4,12.6,1.8c0.6,0.1,0.7-0.3,0.7-0.3
			l1.1-0.2l1.4-0.2L428.7,612.7z"/>
		<path class="st48" d="M423.7,613.6c0,0.9,1.4,1.5,3.1,1.5c1.7,0,3.1-0.7,3.1-1.5c0-0.9-1.4-1.5-3.1-1.5
			C425.1,612.1,423.7,612.7,423.7,613.6z"/>
		
			<linearGradient id="SVGID_44_" gradientUnits="userSpaceOnUse" x1="3589.4951" y1="585.4321" x2="3748.7039" y2="521.8981" gradientTransform="matrix(-1 0 0 1 4103.5195 0)">
			<stop  offset="0" style="stop-color:#FFE600"/>
			<stop  offset="1" style="stop-color:#FFC400"/>
		</linearGradient>
		<path class="st60" d="M418.5,483.6c6.8,1.3,4.9,5,4.9,8.5c0,3.5,2,21.9,4.5,46c2.3,22.2,1.1,31.9,1.4,48.9
			c0.2,13.5,1.2,20.5,1.6,22.8c0.1,0.3,0.2,0.6,0.2,0.9c0,1.9-2,3.5-4.4,3.5c-2.4,0-4.4-1.6-4.4-3.5c0,0-2.6-33.9-3-37.5
			c-2.3-18-8.3-39.5-10.6-47.5c-2.3-8-12-35.9-12-35.9S403.5,480.7,418.5,483.6z"/>
		
			<linearGradient id="SVGID_45_" gradientUnits="userSpaceOnUse" x1="3711.2754" y1="410.3194" x2="3702.0576" y2="391.633" gradientTransform="matrix(-1 0 0 1 4103.5195 0)">
			<stop  offset="0" style="stop-color:#F8A980"/>
			<stop  offset="1" style="stop-color:#FFDF75"/>
		</linearGradient>
		<path class="st61" d="M406.8,407.9c-0.5-1-4.1-8.8-4.7-13.9c-0.6-5.1-0.3-8-0.7-8.1c-0.3-0.1-3.5-0.9-3.5-0.9l-6.1,3.2l-2.8,1.2
			c0,0-1.7,4.4,0.6,6.5c5.4,4.8,4.3,16.6,0.6,16.3c-0.3,0,0,3.9,3.6,2.6c3.6-1.3,8.2-3.5,8.8-4C403.4,410.4,406.8,407.9,406.8,407.9
			z"/>
		
			<linearGradient id="SVGID_46_" gradientUnits="userSpaceOnUse" x1="3701.0757" y1="392.0659" x2="3727.9856" y2="374.8735" gradientTransform="matrix(-1 0 0 1 4103.5195 0)">
			<stop  offset="0" style="stop-color:#F8A980"/>
			<stop  offset="1" style="stop-color:#FFDF75"/>
		</linearGradient>
		<path class="st62" d="M386.9,387.9c-0.7-0.3-1.2-0.8-1.2-1.4c0-0.8,2.7-5.7,4-6.8c0.1-0.9,0.2-2.1,0.4-3c0.3-2,0.8-3.3,2.4-3.3
			c1.7,0,5.3,0.8,5.3,0.8s4.3,2.4,4.3,2.5c0,0.1,5.3,12,5.3,12.4c0,0.4-7,9.2-18.2,9.2c-1.4,0-2.5-1.1-2.5-2.5
			c0-0.3,0.1-0.6,0.2-0.9c0.1-0.6,0.2-1.5,0.2-2.1c0-1.2-0.7-1.8-0.4-2.4c0.3-0.6,0.8-1,0.5-1.6C387.1,388.5,387,388.2,386.9,387.9z
			"/>
		
			<linearGradient id="SVGID_47_" gradientUnits="userSpaceOnUse" x1="3726.0725" y1="640.8251" x2="3724.4839" y2="632.4157" gradientTransform="matrix(-1 0 0 1 4103.5195 0)">
			<stop  offset="0" style="stop-color:#334752"/>
			<stop  offset="1" style="stop-color:#6A6D89"/>
		</linearGradient>
		<path class="st63" d="M389.7,631.2l1.5,1.2c0,0,0.4,3.9,0.3,6.2c-0.1,2.3,0.8,4.7-0.3,5.1c-1.1,0.4-3.9,1.3-5.9,0.4
			s-1.7-3.3-2.9-3.2c-1.2,0.1-8.3-1.9-13.1-4.5c-4.8-2.7-6.3-6.6-2.4-6.3c3.9,0.3,12.4,1.9,15.8,2.5c0.7,0.2,0.8-0.4,0.8-0.4
			l1.4-0.2l1.8-0.3L389.7,631.2z"/>
		<path class="st48" d="M383.4,632.4c0,1.2,1.7,2.1,3.9,2.1c2.1,0,3.9-1,3.9-2.1c0-1.2-1.7-2.1-3.9-2.1
			C385.2,630.3,383.4,631.3,383.4,632.4z"/>
		<linearGradient id="SVGID_48_" gradientUnits="userSpaceOnUse" x1="379.3494" y1="556.2168" x2="416.9824" y2="556.2168">
			<stop  offset="0" style="stop-color:#FFE600"/>
			<stop  offset="1" style="stop-color:#FFC400"/>
		</linearGradient>
		<path class="st64" d="M379.9,487.8l15.6,2.5c1-6.5,5.4-11.4,10.6-11.4c6,0,10.8,6.4,10.8,14.2c0,2.8-0.6,5.3-1.6,7.5
			c-2.9,7.6-14.5,16.8-15.8,28.6c-1.3,12.6-5.2,17.9-5.8,25.3c-0.5,7.4-1.1,41.2-1.7,52.1c-0.7,10.8-1,23.7-1,23.7
			c0,1.7-1.6,3.1-3.6,3.1c-2,0-3.6-1.4-3.6-3.1c0,0-3.9-55-4.2-67.4c-0.3-12.3-0.1-13.1-0.3-28.5
			C379.2,516.6,379.9,487.8,379.9,487.8z"/>
		<linearGradient id="SVGID_49_" gradientUnits="userSpaceOnUse" x1="377.2424" y1="416.4596" x2="457.3451" y2="512.0449">
			<stop  offset="0" style="stop-color:#EDF2F6"/>
			<stop  offset="1" style="stop-color:#C3D0D8"/>
		</linearGradient>
		<path class="st65" d="M379.8,449.7c-2.7-11.2-4.4-15.6-4.4-15.6l1.6-20.7c0,0,6.4-3.8,13.5-5.1c5.4-1,8.1-1.5,13.2-4.1
			c1.3-0.7,3.7-4.1,9.8-5.8c0,0,5.9-1.8,8.3,2.3c3.1,5.3,1.5,11.3-0.1,24.8c-1.6,13.5-1.7,29,0,40.5c1,6.7,2.7,14.6,1.9,19.3
			c0,0.1,0,0.1,0,0.2c0,0.4-0.2,0.9-0.4,1.3c-0.4,1.1-1,1.9-2,2.4c-3.6,2.9-11.1,5-20.1,5c-8.5,0-15.5-1.6-19.3-4.2
			c-1.7-0.6-3.5-2.6-3.5-8.3C378.4,471.9,382.5,460.9,379.8,449.7z"/>
		<path class="st66" d="M391.3,374.3c-0.8-4.1,0.1-12.4,0.1-12.4c0-0.7,0.6-1.2,1.3-1.2c10.2-0.4,20.5,12.6,22.5,15.2
			c1.1,1.3,1.8,2.8,1.8,4.6c0,0.5-0.1,1-0.2,1.5c0,0.1,0,0.1,0,0.1c-0.7,5-8.6,13.2-8.6,13.2l-0.1,0c-0.8,0.8-2,1.4-3.4,1.4
			c-2.3,0-4.2-1.6-4.6-3.6c0,0,0,0,0-0.1c-0.3-1.2-0.9-4-0.6-9c0.1-1.6-5.1-3.2-5.2-3.2l-0.1,0c-1-0.3-1.7-1.1-2-2c0,0,0,0,0,0
			c0,0,0,0,0-0.1c0-0.2-0.1-0.3-0.1-0.5C391.9,377.1,391.9,376.9,391.3,374.3z"/>
		
			<linearGradient id="SVGID_50_" gradientUnits="userSpaceOnUse" x1="7219.2251" y1="-5172.3721" x2="7299.2095" y2="-5183.582" gradientTransform="matrix(-0.1406 0.9901 0.9901 0.1406 6518.3013 -5969.7163)">
			<stop  offset="0" style="stop-color:#F8A980"/>
			<stop  offset="1" style="stop-color:#FFDF75"/>
		</linearGradient>
		<path class="st67" d="M374.5,455.6l-8.3,45.6c0,0-5.1,0.3-5.3,4.3c-0.2,4-2.3,15.4-2.3,15.4s-2.1,6.8,3.9-3
			c6-9.7,7.6-11.2,7.1-14.6c0.5-2.3,12.8-28.5,12.3-31.3c-0.4-2.3,4.1-11.4,1.8-15c-0.3-0.5-4.5,3.3-4.5,3.3L374.5,455.6z"/>
		<linearGradient id="SVGID_51_" gradientUnits="userSpaceOnUse" x1="366.2575" y1="413.9527" x2="405.3" y2="477.228">
			<stop  offset="0" style="stop-color:#EDF2F6"/>
			<stop  offset="1" style="stop-color:#C3D0D8"/>
		</linearGradient>
		<path class="st68" d="M373.8,458.1c-1.2-1.3,0.5-5.3-2-20.6c-1.5-9.1-1.2-14-0.7-16.5c0.4-2.5,1.8-5,4.3-6.5
			c4.2-2.7,9.7-1.6,12.3,2.4c0.3,0.5,0.6,1,0.8,1.6c3.5,5.2-2.6,30.6-3.1,35c-0.6,4.3,0.2,8.1-3.4,7.9
			C379.3,461.2,375.7,460.1,373.8,458.1z"/>
	</g>
	<g>
		<g class="st0">
			<g>
				<path class="st1" d="M259.8,547.1c-1.9-1.2-5.1-1.3-7.1-0.2l-54.5,30.5c-2,1.1-2,3-0.1,4.2l68,43c1.9,1.2,5.1,1.3,7.1,0.2
					l54.5-30.5c2-1.1,2-3,0.1-4.2L259.8,547.1z"/>
			</g>
		</g>
		<g>
			<linearGradient id="SVGID_52_" gradientUnits="userSpaceOnUse" x1="269.0624" y1="536.3748" x2="262.2463" y2="608.5636">
				<stop  offset="0" style="stop-color:#FFDF40"/>
				<stop  offset="1" style="stop-color:#FF8359"/>
			</linearGradient>
			<path class="st69" d="M324.3,588.5l0.2-5.6c0.2-0.8-0.2-1.6-1.2-2.3l-61-38.5c-1.7-1.1-4.6-1.2-6.4-0.2L207,569.3
				c-0.9,0.5-1.4,1.3-1.4,2l-0.2,5.8c0,0.1,0,0.2,0,0.3l0,0.1h0c0.1,0.6,0.5,1.2,1.3,1.7l61,38.5c1.7,1.1,4.6,1.2,6.4,0.2l48.9-27.4
				C323.9,590,324.3,589.3,324.3,588.5C324.3,588.5,324.3,588.5,324.3,588.5z"/>
			<g>
				<g>
					<linearGradient id="SVGID_53_" gradientUnits="userSpaceOnUse" x1="266.0734" y1="570.8923" x2="256.7786" y2="626.6611">
						<stop  offset="0" style="stop-color:#FFDF40"/>
						<stop  offset="1" style="stop-color:#FF8359"/>
					</linearGradient>
					<path class="st70" d="M262.3,542.1c-1.7-1.1-4.6-1.2-6.4-0.2L207,569.3c-1.8,1-1.8,2.7-0.1,3.8l61,38.5
						c1.7,1.1,4.6,1.2,6.4,0.2l48.9-27.4c1.8-1,1.8-2.7,0.1-3.8L262.3,542.1z"/>
				</g>
			</g>
		</g>
		<g>
			<linearGradient id="SVGID_54_" gradientUnits="userSpaceOnUse" x1="277.7739" y1="537.7128" x2="274.9854" y2="612.3815">
				<stop  offset="0" style="stop-color:#AFF57A"/>
				<stop  offset="1" style="stop-color:#54D169"/>
			</linearGradient>
			<path class="st71" d="M336.1,579.2l-0.1-5.6c0.1-0.8-0.3-1.6-1.4-2.2l-63.2-34.8c-1.8-1-4.7-0.9-6.4,0.2L217.9,567
				c-0.9,0.6-1.3,1.3-1.2,2.1l0.1,5.8c0,0.1,0,0.2,0,0.3l0,0.1h0c0.1,0.6,0.5,1.2,1.4,1.7l63.2,34.8c1.8,1,4.7,0.9,6.4-0.2
				l47.2-30.2C335.8,580.7,336.2,579.9,336.1,579.2C336.1,579.2,336.1,579.2,336.1,579.2z"/>
			<g>
				<g>
					<linearGradient id="SVGID_55_" gradientUnits="userSpaceOnUse" x1="294.7545" y1="536.7333" x2="244.7704" y2="630.0928">
						<stop  offset="0" style="stop-color:#AFF57A"/>
						<stop  offset="1" style="stop-color:#54D169"/>
					</linearGradient>
					<path class="st72" d="M271.5,536.6c-1.8-1-4.7-0.9-6.4,0.2L217.9,567c-1.7,1.1-1.7,2.8,0.1,3.8l63.2,34.8
						c1.8,1,4.7,0.9,6.4-0.2l47.2-30.2c1.7-1.1,1.7-2.8-0.1-3.8L271.5,536.6z"/>
				</g>
			</g>
		</g>
		<g>
			<linearGradient id="SVGID_56_" gradientUnits="userSpaceOnUse" x1="280.7315" y1="495.7555" x2="268.7517" y2="574.658">
				<stop  offset="0" style="stop-color:#15EDED"/>
				<stop  offset="1" style="stop-color:#029CF5"/>
			</linearGradient>
			<path class="st73" d="M330.5,567.1l0-5.6c0.2-0.8-0.3-1.6-1.3-2.2l-62.5-36c-1.8-1-4.6-1-6.4,0.1l-47.7,29.3
				c-0.9,0.6-1.4,1.3-1.3,2.1v5.8c0,0.1,0,0.2,0,0.3v0.1l0,0c0.1,0.6,0.5,1.2,1.3,1.7l62.5,36c1.8,1,4.6,1,6.4-0.1l47.7-29.4
				C330.1,568.6,330.5,567.8,330.5,567.1L330.5,567.1z"/>
			<g>
				<g>
					<linearGradient id="SVGID_57_" gradientUnits="userSpaceOnUse" x1="283.4208" y1="522.1255" x2="247.0692" y2="625.3981">
						<stop  offset="0" style="stop-color:#15EDED"/>
						<stop  offset="1" style="stop-color:#029CF5"/>
					</linearGradient>
					<path class="st74" d="M266.6,523.3c-1.8-1-4.6-1-6.4,0.1l-47.7,29.3c-1.7,1.1-1.7,2.8,0.1,3.8l62.5,36c1.8,1,4.6,1,6.4-0.1
						l47.7-29.3c1.7-1.1,1.7-2.8-0.1-3.8L266.6,523.3z"/>
				</g>
			</g>
			<path class="st35" d="M275.2,578.1l-3.4-27.9l-17.4,2.8l4.3-12.4l-30.8,2.5l-15.5,9.5c-1.7,1.1-1.7,2.8,0.1,3.8l62.5,36
				c1.8,1,4.6,1,6.4-0.1l9.4-5.8l-0.9-11.2L275.2,578.1z"/>
			<path class="st19" d="M303.9,561.1c0,6.1-6.5,11-14.4,11c-8,0-14.4-4.9-14.4-11c0-6.1,6.5-11,14.4-11
				C297.4,550.1,303.9,555,303.9,561.1z"/>
		</g>
	</g>
	<g>
		<g class="st0">
			<g>
				<path class="st1" d="M128.6,442.3c1.6-1,4.4-1.1,6.1-0.2l46.4,26c1.7,0.9,1.7,2.6,0.1,3.6l-57.9,36.6c-1.6,1-4.4,1.1-6.1,0.2
					l-46.4-26c-1.7-0.9-1.7-2.6-0.1-3.6L128.6,442.3z"/>
			</g>
		</g>
		<g>
			<path class="st9" d="M73.6,477.6l-0.2-4.8c-0.2-0.7,0.2-1.4,1-1.9l51.9-32.8c1.5-0.9,3.9-1,5.4-0.1l41.6,23.3
				c0.8,0.5,1.2,1.1,1.2,1.7l0.2,4.9c0,0.1,0,0.2,0,0.3l0,0h0c-0.1,0.5-0.4,1.1-1.1,1.5l-51.9,32.8c-1.5,0.9-3.9,1-5.4,0.1
				l-41.6-23.3C74,478.8,73.6,478.2,73.6,477.6L73.6,477.6z"/>
			<g>
				<g>
					
						<linearGradient id="SVGID_58_" gradientUnits="userSpaceOnUse" x1="3251.4954" y1="462.5687" x2="3243.5813" y2="510.0536" gradientTransform="matrix(-1 0 0 1 3374.668 0)">
						<stop  offset="0" style="stop-color:#EDF2F6"/>
						<stop  offset="1" style="stop-color:#E6E4EB"/>
					</linearGradient>
					<path class="st75" d="M126.4,438.1c1.5-0.9,3.9-1,5.4-0.1l41.6,23.3c1.5,0.9,1.6,2.3,0.1,3.2l-51.9,32.8
						c-1.5,0.9-3.9,1-5.4,0.1l-41.6-23.3c-1.5-0.9-1.6-2.3-0.1-3.2L126.4,438.1z"/>
				</g>
			</g>
		</g>
		<g>
			<path class="st9" d="M69.6,467.2l0-4.8c-0.1-0.7,0.2-1.4,1.1-1.9l53.2-30.6c1.5-0.9,4-0.8,5.4,0.1l40.6,25
				c0.8,0.5,1.1,1.1,1.1,1.8v4.9c0,0.1,0,0.2,0,0.3v0h0c-0.1,0.5-0.4,1-1.1,1.4L116.8,494c-1.5,0.9-4,0.8-5.4-0.1l-40.6-25
				C69.9,468.5,69.6,467.8,69.6,467.2L69.6,467.2z"/>
			<g>
				<g>
					
						<linearGradient id="SVGID_59_" gradientUnits="userSpaceOnUse" x1="3256.6309" y1="445.7939" x2="3248.2451" y2="494.2025" gradientTransform="matrix(-1 0 0 1 3374.668 0)">
						<stop  offset="0" style="stop-color:#EDF2F6"/>
						<stop  offset="1" style="stop-color:#E6E4EB"/>
					</linearGradient>
					<path class="st76" d="M124,429.9c1.5-0.9,4-0.8,5.4,0.1l40.6,25c1.5,0.9,1.5,2.4,0,3.2l-53.2,30.6c-1.5,0.9-4,0.8-5.4-0.1
						l-40.6-25c-1.5-0.9-1.5-2.4,0-3.2L124,429.9z"/>
				</g>
			</g>
		</g>
		<g>
			<g>
				<g>
					<path class="st1" d="M128.4,458.3c-0.1,0.1-0.2,0.2-0.2,0.3c0,0.1,0,0.2,0.2,0.3l1.3,0.9c0.1,0.1,0.3,0.1,0.4,0.1
						c0.2,0,0.3,0,0.5-0.1l1.5-0.9c0.1-0.1,0.2-0.2,0.2-0.3c0-0.1,0-0.2-0.2-0.3l-1.3-0.9c-0.1-0.1-0.3-0.1-0.5-0.1
						c-0.2,0-0.3,0-0.5,0.1L128.4,458.3z"/>
				</g>
				<g>
					<path class="st1" d="M121,446.8c-0.1,0.1-0.2,0.2-0.3,0.3c0,0.1,0,0.2,0.2,0.3l0.6,0.4c0.1,0.1,0.3,0.1,0.4,0.1
						c0.2,0,0.3,0,0.4-0.1l0.1-0.1c0.7-0.4,1.4-0.6,2-0.6c0.6,0,1.3,0.2,2,0.5c0.7,0.3,1.6,0.9,2.6,1.7c1.4,1,2.9,1.4,4.6,1.1
						c-0.6,1-0.2,2.1,1.3,3.1c1.1,0.8,1.9,1.4,2.3,1.9c0.5,0.5,0.7,0.9,0.6,1.3c-0.1,0.4-0.5,0.8-1.2,1.3l-0.1,0.1
						c-0.1,0.1-0.2,0.2-0.2,0.3c0,0.1,0,0.2,0.1,0.3l0.6,0.5c0.1,0.1,0.3,0.1,0.4,0.1c0.2,0,0.3,0,0.5-0.1l0.1-0.1
						c1.1-0.7,1.8-1.4,2-2c0.2-0.7,0.1-1.4-0.4-2.1c-0.5-0.7-1.4-1.5-2.6-2.3c-0.6-0.4-1-0.9-1.2-1.2c-0.2-0.4-0.1-0.8,0.1-1.2
						l0.1-0.1c0.1-0.2,0.1-0.4,0.1-0.5c0-0.1-0.1-0.2-0.3-0.3l-0.3-0.2c-0.2-0.1-0.3-0.2-0.5-0.2c-0.2,0-0.4,0-0.7,0l-0.3,0
						c-0.7,0.1-1.3,0.1-1.8-0.1c-0.5-0.1-1.1-0.4-1.7-0.9c-1.2-0.9-2.3-1.5-3.3-1.9c-1-0.4-2-0.5-3.1-0.4c-1,0.1-2.1,0.5-3.2,1.2
						L121,446.8z"/>
				</g>
				<g>
					<path class="st1" d="M122.9,461.6c-0.1,0.1-0.2,0.2-0.2,0.3c0,0.1,0,0.2,0.2,0.3l1.3,0.9c0.1,0.1,0.3,0.1,0.4,0.1
						c0.2,0,0.3,0,0.5-0.1l1.5-0.9c0.1-0.1,0.2-0.2,0.2-0.3c0-0.1,0-0.2-0.2-0.3l-1.3-0.9c-0.1-0.1-0.3-0.1-0.5-0.1
						c-0.2,0-0.3,0-0.5,0.1L122.9,461.6z"/>
				</g>
				<g>
					<path class="st1" d="M102.1,458.3c-1.1,0.7-1.8,1.4-2,2c-0.2,0.7-0.1,1.4,0.4,2c0.5,0.7,1.4,1.5,2.6,2.3c0.6,0.4,1,0.9,1.2,1.2
						c0.1,0.4,0.1,0.8-0.1,1.2l-0.1,0.1c-0.1,0.2-0.2,0.4-0.1,0.5c0,0.1,0.1,0.2,0.3,0.3l0.3,0.2c0.1,0.1,0.3,0.2,0.5,0.2
						c0.2,0,0.4,0,0.8,0l0.2,0c0.7-0.1,1.3-0.1,1.8,0.1c0.5,0.1,1.1,0.4,1.7,0.9c1.2,0.9,2.3,1.5,3.3,1.9c1,0.4,2,0.5,3,0.5
						c1-0.1,2.1-0.5,3.2-1.2l0.1-0.1c0.1-0.1,0.2-0.2,0.2-0.3c0-0.1,0-0.2-0.1-0.3l-0.6-0.5c-0.1-0.1-0.3-0.1-0.4-0.1
						c-0.2,0-0.3,0-0.5,0.1l-0.1,0.1c-0.7,0.4-1.4,0.6-2,0.7c-0.6,0-1.3-0.2-2-0.5c-0.7-0.3-1.6-0.9-2.7-1.7c-1.4-1-2.9-1.4-4.5-1.1
						c0.6-1,0.2-2.1-1.3-3.1c-1.1-0.8-1.8-1.4-2.3-1.9c-0.5-0.5-0.7-0.9-0.6-1.3c0.1-0.4,0.4-0.8,1.1-1.3l0.1-0.1
						c0.1-0.1,0.2-0.2,0.2-0.3c0-0.1,0-0.2-0.1-0.3l-0.6-0.4c-0.1-0.1-0.3-0.1-0.4-0.1c-0.2,0-0.3,0-0.5,0.1L102.1,458.3z"/>
				</g>
				<g>
					<path class="st1" d="M117.3,465c-0.2,0.1-0.2,0.2-0.2,0.3c0,0.1,0,0.2,0.2,0.3l1.3,0.9c0.1,0.1,0.3,0.1,0.4,0.1
						c0.2,0,0.3,0,0.5-0.1l1.5-0.9c0.1-0.1,0.2-0.2,0.2-0.3c0-0.1,0-0.2-0.2-0.3l-1.3-0.9c-0.1-0.1-0.3-0.1-0.5-0.1
						c-0.2,0-0.3,0-0.5,0.1L117.3,465z"/>
				</g>
			</g>
		</g>
	</g>
	<g>
		<g class="st0">
			<g>
				<path class="st1" d="M31.3,539.5c-0.9-0.6-2.5-0.6-3.5-0.1L1.3,554.3c-1,0.5-1,1.5-0.1,2.1l33.1,20.9c0.9,0.6,2.5,0.6,3.5,0.1
					l26.5-14.9c1-0.5,1-1.5,0.1-2.1L31.3,539.5z"/>
			</g>
		</g>
		<g>
			<path class="st9" d="M62.7,559.7l0.1-2.7c0.1-0.4-0.1-0.8-0.6-1.1l-29.7-18.8c-0.8-0.5-2.2-0.6-3.1-0.1L5.6,550.3
				c-0.5,0.3-0.7,0.6-0.7,1l-0.1,2.8c0,0.1,0,0.1,0,0.2l0,0h0c0,0.3,0.2,0.6,0.6,0.8l29.7,18.8c0.8,0.5,2.2,0.6,3.1,0.1l23.8-13.3
				C62.5,560.4,62.7,560,62.7,559.7L62.7,559.7z"/>
			<g>
				<g>
					
						<linearGradient id="SVGID_60_" gradientUnits="userSpaceOnUse" x1="-84.1835" y1="551.0714" x2="-88.7095" y2="578.2278" gradientTransform="matrix(1 0 0 1 118.5625 0)">
						<stop  offset="0" style="stop-color:#EDF2F6"/>
						<stop  offset="1" style="stop-color:#E6E4EB"/>
					</linearGradient>
					<path class="st77" d="M32.5,537.1c-0.8-0.5-2.2-0.6-3.1-0.1L5.6,550.3c-0.9,0.5-0.9,1.3,0,1.8l29.7,18.8
						c0.8,0.5,2.2,0.6,3.1,0.1l23.8-13.3c0.9-0.5,0.9-1.3,0-1.9L32.5,537.1z"/>
				</g>
			</g>
		</g>
		<g>
			<linearGradient id="SVGID_61_" gradientUnits="userSpaceOnUse" x1="31.8076" y1="527.27" x2="38.6713" y2="565.9193">
				<stop  offset="0" style="stop-color:#AFF57A"/>
				<stop  offset="1" style="stop-color:#54D169"/>
			</linearGradient>
			<path class="st78" d="M65,553.7l0-2.7c0.1-0.4-0.1-0.8-0.6-1.1l-30.4-17.5c-0.9-0.5-2.3-0.5-3.1,0L7.6,546.7
				c-0.5,0.3-0.7,0.6-0.6,1v2.8c0,0.1,0,0.1,0,0.2v0h0c0,0.3,0.3,0.6,0.6,0.8L38,569.1c0.9,0.5,2.3,0.5,3.1,0l23.2-14.3
				C64.8,554.4,65,554.1,65,553.7L65,553.7z"/>
			<g>
				<g>
					<linearGradient id="SVGID_62_" gradientUnits="userSpaceOnUse" x1="39.8611" y1="524.4395" x2="30.7585" y2="582.4853">
						<stop  offset="0" style="stop-color:#AFF57A"/>
						<stop  offset="1" style="stop-color:#54D169"/>
					</linearGradient>
					<path class="st79" d="M33.9,532.4c-0.9-0.5-2.3-0.5-3.1,0L7.6,546.7c-0.8,0.5-0.8,1.4,0,1.9L38,566.1c0.9,0.5,2.3,0.5,3.1,0
						l23.2-14.3c0.8-0.5,0.8-1.4,0-1.9L33.9,532.4z"/>
				</g>
			</g>
		</g>
		<g>
			<g>
				<g>
					<path class="st44" d="M41.3,548.2c0.1,0,0.1,0.1,0.1,0.1c0,0,0,0.1-0.1,0.1l-6.1,3.5c-0.1,0-0.1,0.1-0.2,0.1
						c-0.1,0-0.2,0-0.2-0.1l-0.4-0.2c-0.1,0-0.1-0.1-0.1-0.1c0,0,0-0.1,0.1-0.1L37,550l-3.2-1.8l-2.7,1.6c-0.1,0-0.1,0.1-0.2,0.1
						c-0.1,0-0.2,0-0.2-0.1l-0.4-0.2c-0.1,0-0.1-0.1-0.1-0.1c0,0,0-0.1,0.1-0.1l6.1-3.5c0.1,0,0.1-0.1,0.2-0.1c0.1,0,0.1,0,0.2,0
						l0.4,0.2c0.1,0,0.1,0.1,0.1,0.1c0,0,0,0.1-0.1,0.1l-2.6,1.5l3.2,1.8l2.6-1.5c0.1,0,0.1-0.1,0.2-0.1c0.1,0,0.2,0,0.2,0
						L41.3,548.2z"/>
				</g>
				<g>
					<path class="st44" d="M34.4,545c0.1,0.4-0.2,0.8-0.9,1.2c-0.6,0.4-1.3,0.6-2.1,0.5c-0.7,0-1.4-0.2-2.1-0.6l-1.6-0.9l-2.3,1.4
						c-0.1,0-0.1,0.1-0.2,0.1c-0.1,0-0.1,0-0.2,0l-0.5-0.3c-0.1,0-0.1-0.1-0.1-0.1c0,0,0-0.1,0.1-0.1l6.1-3.5c0.1,0,0.1-0.1,0.2-0.1
						c0.1,0,0.1,0,0.2,0l2.3,1.3C34,544.1,34.4,544.5,34.4,545z M30.1,545.6c0.9,0.5,1.8,0.5,2.6,0.1c0.4-0.2,0.6-0.5,0.6-0.7
						c0-0.3-0.3-0.5-0.7-0.8l-1.6-0.9l-2.4,1.4L30.1,545.6L30.1,545.6z"/>
				</g>
				<g>
					<path class="st44" d="M46.7,551.8c0.1,0.4-0.2,0.8-0.9,1.2c-0.6,0.4-1.3,0.6-2.1,0.5c-0.7,0-1.4-0.2-2.1-0.6L40,552l-2.3,1.4
						c-0.1,0-0.1,0.1-0.2,0.1c-0.1,0-0.1,0-0.2-0.1l-0.4-0.3c-0.1,0-0.1-0.1-0.1-0.1c0,0,0-0.1,0.1-0.1l6.1-3.5
						c0.1,0,0.1-0.1,0.2-0.1c0.1,0,0.1,0,0.2,0l2.3,1.3C46.3,551,46.6,551.4,46.7,551.8z M42.4,552.4c0.9,0.5,1.8,0.5,2.6,0.1
						c0.4-0.2,0.6-0.5,0.6-0.7c0-0.2-0.3-0.5-0.7-0.8l-1.6-0.9l-2.4,1.4L42.4,552.4L42.4,552.4z"/>
				</g>
			</g>
		</g>
	</g>
	<g>
		<path class="st8" d="M148.2,602c0,8.9-12.4,16.1-27.8,16.1c-15.3,0-27.8-7.2-27.8-16.1c0-8.9,12.4-16.1,27.8-16.1
			C135.8,585.9,148.2,593.1,148.2,602z"/>
		<path class="st9" d="M146.1,573.2l-12.3-1l-8.7-0.8l-18,0.6l-11.4,0.8l-1.8,1.2l3.2,26.4c0,0,0,0,0,0c0,7.3,10.3,13.3,22.9,13.3
			c12.3,0,22.3-5.6,22.9-12.6c0,0,0,0,0,0L146.1,573.2z"/>
		<path class="st10" d="M146.1,573.7c0,7.6-11.7,13.7-26.1,13.7c-14.4,0-26.1-6.1-26.1-13.7c0-7.6,11.7-13.7,26.1-13.7
			C134.5,560,146.1,566.1,146.1,573.7z"/>
		<path class="st11" d="M137,573.7c0,4.9-7.6,8.9-17,8.9c-9.4,0-17-4-17-8.9c0-4.9,7.6-8.9,17-8.9C129.4,564.8,137,568.8,137,573.7z
			"/>
	</g>
	<g>
		<g class="st0">
			<g>
				<path class="st1" d="M182.5,509.5c-0.8-0.5-2.1-0.5-2.9-0.1L157.1,522c-0.8,0.5-0.8,1.2,0,1.7l28.1,17.7
					c0.8,0.5,2.1,0.5,2.9,0.1l22.5-12.6c0.8-0.5,0.8-1.2,0-1.8L182.5,509.5z"/>
			</g>
		</g>
		<g>
			<path class="st9" d="M209.1,526.6l0.1-2.3c0.1-0.3-0.1-0.7-0.5-0.9l-25.2-15.9c-0.7-0.5-1.9-0.5-2.6-0.1l-20.2,11.3
				c-0.4,0.2-0.6,0.5-0.6,0.8l-0.1,2.4c0,0,0,0.1,0,0.1v0h0c0,0.3,0.2,0.5,0.5,0.7l25.2,15.9c0.7,0.5,1.9,0.5,2.6,0.1l20.2-11.3
				C208.9,527.2,209.1,526.9,209.1,526.6L209.1,526.6z"/>
			<g>
				<g>
					
						<linearGradient id="SVGID_63_" gradientUnits="userSpaceOnUse" x1="66.5371" y1="519.3061" x2="62.7016" y2="542.3192" gradientTransform="matrix(1 0 0 1 118.5625 0)">
						<stop  offset="0" style="stop-color:#EDF2F6"/>
						<stop  offset="1" style="stop-color:#E6E4EB"/>
					</linearGradient>
					<path class="st80" d="M183.5,507.4c-0.7-0.5-1.9-0.5-2.6-0.1l-20.2,11.3c-0.7,0.4-0.8,1.1,0,1.6l25.2,15.9
						c0.7,0.5,1.9,0.5,2.6,0.1l20.2-11.3c0.7-0.4,0.8-1.1,0-1.6L183.5,507.4z"/>
				</g>
			</g>
		</g>
		<g>
			<linearGradient id="SVGID_64_" gradientUnits="userSpaceOnUse" x1="182.9207" y1="499.137" x2="188.7371" y2="531.8886">
				<stop  offset="0" style="stop-color:#59C2FF"/>
				<stop  offset="1" style="stop-color:#1270E3"/>
			</linearGradient>
			<path class="st81" d="M211.1,521.6l0-2.3c0.1-0.3-0.1-0.7-0.5-0.9l-25.8-14.8c-0.7-0.4-1.9-0.4-2.6,0l-19.7,12.1
				c-0.4,0.2-0.6,0.5-0.5,0.9v2.4c0,0,0,0.1,0,0.1v0h0c0,0.3,0.2,0.5,0.5,0.7l25.8,14.9c0.7,0.4,1.9,0.4,2.6,0l19.7-12.1
				C210.9,522.2,211.1,521.9,211.1,521.6L211.1,521.6z"/>
			<g>
				<g>
					<linearGradient id="SVGID_65_" gradientUnits="userSpaceOnUse" x1="189.7453" y1="496.7377" x2="182.031" y2="545.931">
						<stop  offset="0" style="stop-color:#59C2FF"/>
						<stop  offset="1" style="stop-color:#1270E3"/>
					</linearGradient>
					<path class="st82" d="M184.7,503.5c-0.7-0.4-1.9-0.4-2.6,0l-19.7,12.1c-0.7,0.4-0.7,1.1,0,1.6l25.8,14.9c0.7,0.4,1.9,0.4,2.6,0
						l19.7-12.1c0.7-0.4,0.7-1.1,0-1.6L184.7,503.5z"/>
				</g>
			</g>
		</g>
		<g>
			<g>
				<g>
					<path class="st44" d="M184.3,512.5c0.5,0.3,0.8,0.5,0.9,0.8c0.2,0.3,0.2,0.6,0.1,0.8c-0.1,0.3-0.3,0.5-0.6,0.7l-0.2,0l-0.2,0
						l-0.4-0.2l-0.1-0.1c0,0,0-0.1,0.1-0.1c0.3-0.3,0.5-0.6,0.4-0.8c-0.1-0.2-0.3-0.5-0.7-0.7c-0.9-0.5-1.9-0.4-3,0.2
						c-0.2,0.1-0.4,0.2-0.7,0.4c-0.3,0.2-0.5,0.3-0.7,0.4c-1,0.7-1.1,1.3-0.2,1.8c0.4,0.2,0.8,0.3,1.2,0.4c0.4,0,0.9-0.1,1.4-0.3
						c0.1,0,0.2,0,0.2,0l0.2,0l0.4,0.2l0.1,0.1l-0.1,0.1c-0.3,0.2-0.7,0.3-1.2,0.4c-0.4,0.1-0.9,0.1-1.4,0c-0.5-0.1-1-0.2-1.5-0.5
						c-0.7-0.4-1-0.8-1-1.2c0-0.4,0.4-0.9,1-1.3c0.1-0.1,0.4-0.2,0.7-0.4c0.3-0.2,0.6-0.4,0.7-0.5c0.7-0.4,1.5-0.6,2.2-0.7
						C182.9,512,183.6,512.1,184.3,512.5z"/>
				</g>
				<g>
					<path class="st44" d="M194.2,517.9c0.4,0.2,0.7,0.5,0.8,0.7c0.1,0.3,0.2,0.5,0.1,0.7c-0.1,0.2-0.2,0.4-0.4,0.6l-0.2,0.1l-0.2,0
						l-0.4-0.2l-0.1-0.1l0-0.1c0.2-0.2,0.3-0.4,0.2-0.6c-0.1-0.2-0.3-0.4-0.6-0.6c-0.4-0.2-0.7-0.3-1.1-0.3c-0.4,0-0.7,0.1-1,0.2
						c-0.2,0.1-0.3,0.2-0.3,0.4c0,0.1,0,0.3,0.1,0.4c0.1,0.2,0.3,0.4,0.6,0.7c0.3,0.3,0.5,0.6,0.7,0.8c0.1,0.2,0.2,0.4,0.1,0.6
						c-0.1,0.2-0.3,0.4-0.6,0.6c-0.5,0.3-1.1,0.5-1.8,0.4c-0.7,0-1.3-0.2-2-0.6c-0.4-0.2-0.7-0.5-0.9-0.7c-0.2-0.3-0.2-0.5-0.2-0.7
						c0.1-0.2,0.2-0.4,0.5-0.6l0.2,0l0.2,0l0.4,0.2c0.1,0,0.1,0.1,0,0.2c-0.2,0.2-0.2,0.4-0.2,0.6c0.1,0.2,0.3,0.4,0.7,0.7
						c0.4,0.2,0.9,0.4,1.3,0.4c0.4,0,0.7-0.1,1-0.2c0.2-0.1,0.3-0.2,0.3-0.4c0-0.1,0-0.3-0.2-0.5c-0.1-0.2-0.3-0.4-0.6-0.7
						c-0.3-0.3-0.5-0.5-0.6-0.8c-0.1-0.2-0.1-0.4,0-0.6c0.1-0.2,0.3-0.4,0.6-0.6c0.3-0.2,0.6-0.3,1-0.4c0.4-0.1,0.8-0.1,1.2,0
						C193.4,517.5,193.8,517.7,194.2,517.9z"/>
				</g>
				<g>
					<path class="st44" d="M189.3,515.2c0.4,0.2,0.7,0.5,0.8,0.7c0.1,0.2,0.2,0.5,0.1,0.7c-0.1,0.2-0.2,0.4-0.4,0.6l-0.2,0.1l-0.2,0
						l-0.4-0.2l-0.1-0.1l0-0.1c0.2-0.2,0.3-0.3,0.2-0.6c-0.1-0.2-0.3-0.4-0.6-0.6c-0.4-0.2-0.7-0.3-1.1-0.3c-0.4,0-0.7,0.1-1,0.2
						c-0.2,0.1-0.3,0.2-0.3,0.4c0,0.1,0,0.3,0.1,0.4c0.1,0.2,0.3,0.4,0.6,0.7c0.3,0.3,0.5,0.6,0.7,0.8c0.1,0.2,0.1,0.4,0.1,0.6
						c-0.1,0.2-0.3,0.4-0.6,0.6c-0.5,0.3-1.1,0.5-1.8,0.4c-0.7,0-1.3-0.2-2-0.6c-0.4-0.2-0.7-0.5-0.9-0.7c-0.2-0.3-0.2-0.5-0.2-0.7
						c0.1-0.2,0.2-0.4,0.5-0.6l0.2,0l0.2,0l0.4,0.2c0.1,0.1,0.1,0.1,0,0.2c-0.2,0.2-0.2,0.4-0.2,0.6c0.1,0.2,0.3,0.5,0.7,0.7
						c0.4,0.2,0.9,0.4,1.3,0.4c0.4,0,0.7-0.1,1-0.2c0.2-0.1,0.3-0.2,0.3-0.4c0-0.1,0-0.3-0.2-0.5c-0.1-0.2-0.3-0.4-0.6-0.7
						c-0.3-0.3-0.5-0.5-0.6-0.8c-0.1-0.2-0.1-0.4,0-0.6c0.1-0.2,0.3-0.4,0.6-0.6c0.3-0.2,0.6-0.3,1-0.4c0.4-0.1,0.8-0.1,1.2,0
						C188.5,514.9,188.9,515,189.3,515.2z"/>
				</g>
			</g>
		</g>
	</g>
</g>
</svg>
