<?xml version="1.0" encoding="utf-8"?>
<!-- Generator: Adobe Illustrator 22.1.0, SVG Export Plug-In . SVG Version: 6.00 Build 0)  -->
<svg version="1.1" id="Layer_1" xmlns="http://www.w3.org/2000/svg" xmlns:xlink="http://www.w3.org/1999/xlink" x="0px" y="0px"
	 viewBox="0 0 70 32" style="enable-background:new 0 0 70 32;" xml:space="preserve">
<style type="text/css">
	.st0{fill:#FF3946;}
	.st1{fill:#314584;}
</style>
<g>
	<rect x="21.5" y="26" class="st0" width="29.7" height="6"/>
	<g>
		<g>
			<path class="st1" d="M15.1,5.8c1.6,1.6,2.4,3.9,2.4,6.8c0,3-0.8,5.2-2.4,6.8c-1.6,1.6-3.8,2.4-6.7,2.4H1.3V3.4h7.2
				C11.3,3.4,13.5,4.2,15.1,5.8z M12.2,17.2c0.9-1.1,1.3-2.6,1.3-4.6c0-2-0.4-3.5-1.3-4.6C11.3,7,10,6.4,8.2,6.4H5.1v12.3h3.1
				C10,18.8,11.3,18.3,12.2,17.2z"/>
			<path class="st1" d="M33,9.5c1.3,1.3,1.9,3.1,1.9,5.4c0,2.3-0.6,4.1-1.9,5.4c-1.3,1.3-3,1.9-5.3,1.9c-2.3,0-4-0.6-5.3-1.9
				c-1.3-1.3-1.9-3.1-1.9-5.4c0-2.3,0.6-4.1,1.9-5.4c1.3-1.3,3-1.9,5.3-1.9C30,7.6,31.8,8.2,33,9.5z M25.3,11.5
				c-0.6,0.7-0.9,1.8-0.9,3.3c0,1.5,0.3,2.6,0.9,3.3c0.6,0.7,1.4,1.1,2.5,1.1c1.1,0,1.9-0.4,2.5-1.1c0.6-0.7,0.9-1.8,0.9-3.3
				c0-1.5-0.3-2.6-0.9-3.3c-0.6-0.7-1.4-1.1-2.5-1.1C26.7,10.4,25.8,10.8,25.3,11.5z"/>
			<path class="st1" d="M50.3,9.5c1.3,1.3,1.9,3.1,1.9,5.4c0,2.3-0.6,4.1-1.9,5.4c-1.3,1.3-3,1.9-5.3,1.9s-4-0.6-5.3-1.9
				c-1.3-1.3-1.9-3.1-1.9-5.4c0-2.3,0.6-4.1,1.9-5.4c1.3-1.3,3-1.9,5.3-1.9S49,8.2,50.3,9.5z M42.5,11.5c-0.6,0.7-0.9,1.8-0.9,3.3
				c0,1.5,0.3,2.6,0.9,3.3c0.6,0.7,1.4,1.1,2.5,1.1c1.1,0,1.9-0.4,2.5-1.1c0.6-0.7,0.9-1.8,0.9-3.3c0-1.5-0.3-2.6-0.9-3.3
				c-0.6-0.7-1.4-1.1-2.5-1.1C43.9,10.4,43.1,10.8,42.5,11.5z"/>
			<path class="st1" d="M68.4,9.5c1.1,1.3,1.6,3.1,1.6,5.4c0,2.3-0.5,4.1-1.6,5.3c-1.1,1.3-2.5,1.9-4.4,1.9c-1.1,0-2.1-0.3-2.9-0.8
				c-0.8-0.6-1.4-1.3-1.8-2.2l-0.1,2.8h-3.4V1.7h3.8v8.4c0.4-0.8,1-1.4,1.8-1.9C62.1,7.8,63,7.6,64,7.6C65.9,7.6,67.3,8.2,68.4,9.5z
				 M65.3,18.1c0.6-0.7,0.9-1.8,0.9-3.2c0-1.4-0.3-2.5-0.9-3.2c-0.6-0.7-1.4-1.1-2.4-1.1c-0.9,0-1.7,0.3-2.3,1
				c-0.6,0.7-0.9,1.6-1,2.7v1.2c0.1,1.2,0.4,2.1,1,2.8c0.6,0.6,1.3,1,2.3,1C63.9,19.2,64.7,18.8,65.3,18.1z"/>
		</g>
	</g>
</g>
</svg>
